<?xml version="1.0" encoding="UTF-8"?>
<svg width="147px" height="48px" viewBox="0 0 147 48" version="1.1" xmlns="http://www.w3.org/2000/svg" xmlns:xlink="http://www.w3.org/1999/xlink">
    <title>logo/logo-jobexit</title>
    <g id="Symbols" stroke="none" stroke-width="1" fill="none" fill-rule="evenodd">
        <g id="comp/Header" transform="translate(-112.000000, -32.000000)">
            <g id="jobexit-signature" transform="translate(112.000000, 32.000000)">
                <g id="Group" transform="translate(14.910000, 38.484581)" fill="#000000" fill-rule="nonzero">
                    <polygon id="Path" points="0.0189 7.2845815 0.0189 0.177621145 1.5351 0.177621145 1.5351 5.92070485 4.8069 5.92070485 4.8069 7.28881057"></polygon>
                    <path d="M8.3853,6.77920705 C8.3454,6.82361233 8.2908,6.88070485 8.2215,6.94837004 C8.08106076,7.05969269 7.92547277,7.15013116 7.7595,7.2169163 C7.12031663,7.51149337 6.3709311,7.41911333 5.8212,6.97797357 C5.52583492,6.72954249 5.35635009,6.36107614 5.3592,5.97356828 C5.34752006,5.59634117 5.48761024,5.23034775 5.7477,4.95859031 C6.03981783,4.67066036 6.41593097,4.48463704 6.8208,4.42784141 L8.3853,4.14449339 C8.39201386,3.9484536 8.3082817,3.76031338 8.1585,3.63488987 C7.97997491,3.49277516 7.7556437,3.42199813 7.5285,3.43612335 C7.31875394,3.4333313 7.11092602,3.47662784 6.9195,3.56299559 C6.77454021,3.61581222 6.64219183,3.69865236 6.531,3.8061674 L6.4176,3.9245815 L5.67,3.17180617 C5.6896,3.14361233 5.7169,3.1076652 5.7519,3.06396476 C5.82342696,2.98176764 5.90061819,2.90474864 5.9829,2.83348018 C6.10359409,2.72455364 6.234394,2.62754484 6.3735,2.54378855 C6.55024534,2.45028095 6.73693352,2.37721682 6.93,2.32599119 C7.1578138,2.25500988 7.39503066,2.21935928 7.6335,2.22026432 C8.19628395,2.19684125 8.74532163,2.39911777 9.1602,2.78273128 C9.54911835,3.14735049 9.76399171,3.66245869 9.7503,4.19735683 L9.7503,7.29515419 L8.3916,7.29515419 L8.3853,6.77920705 Z M8.1123,5.97356828 C8.30528792,5.74595146 8.40314212,5.45187251 8.3853,5.15312775 L8.3853,4.99876652 L7.2786,5.21022026 C6.9069,5.26942731 6.7221,5.45762115 6.7221,5.77057269 C6.7221,6.08352423 6.9321,6.27594714 7.3773,6.27594714 C7.65426036,6.28727462 7.9224561,6.17693895 8.1123,5.97356828 L8.1123,5.97356828 Z" id="Shape"></path>
                    <path d="M13.7214,0.845814978 L14.931,0.845814978 L14.931,2.4169163 L15.9348,2.4169163 L15.9348,3.63488987 L14.931,3.63488987 L14.931,5.61198238 C14.9290213,5.76281188 14.9908737,5.90736423 15.1011,6.00951542 C15.2169589,6.11996561 15.3721767,6.17867054 15.5316,6.1723348 C15.6184456,6.17283823 15.7050777,6.16361862 15.7899,6.14484581 C15.855018,6.13382573 15.918511,6.11464596 15.9789,6.0877533 L16.0377,6.06872247 L16.0377,7.23806167 C15.7465622,7.3448115 15.4381492,7.39573276 15.1284,7.38819383 C14.0896,7.38819383 13.5695,6.81303965 13.5681,5.66273128 L13.5681,3.63488987 L12.7113,3.63488987 L12.7113,2.4169163 L13.1649,2.4169163 C13.3165629,2.41794127 13.460688,2.35042425 13.5576,2.23295154 C13.6701993,2.10104765 13.7287585,1.93095775 13.7214,1.75718062 L13.7214,0.845814978 Z" id="Path"></path>
                    <path d="M20.16,3.63066079 C20.0118655,3.59248978 19.8592773,3.57470685 19.7064,3.57779736 C19.3907136,3.56381124 19.0844383,3.68794045 18.8664,3.91823789 C18.6421817,4.19342922 18.5303175,4.54419645 18.5535,4.89938326 L18.5535,7.2845815 L17.1948,7.2845815 L17.1948,2.30907489 L18.5535,2.30907489 L18.5535,2.91806167 C18.5934,2.87154185 18.648,2.81022026 18.7215,2.73621145 C18.8649866,2.61597251 19.0248022,2.5169984 19.1961,2.44229075 C19.4350991,2.32090881 19.699121,2.25788724 19.9668,2.25832372 L20.1768,2.25832372 L20.16,3.63066079 Z" id="Path"></path>
                    <path d="M23.6418,6.77920705 C23.604,6.82361233 23.5473,6.88070485 23.478,6.94837004 C23.3380314,7.05925684 23.1832,7.14966648 23.0181,7.2169163 C22.3766457,7.50900599 21.6266065,7.41337603 21.0777,6.96951542 C20.7823349,6.72108434 20.6128501,6.35261799 20.6157,5.96511013 C20.6049738,5.58804687 20.7449265,5.22241267 21.0042,4.95013216 C21.2966621,4.66269266 21.672606,4.47675304 22.0773,4.41938326 L23.6418,4.13603524 C23.6471559,3.94071896 23.5645723,3.7534251 23.4171,3.62643172 C23.2385749,3.48431701 23.0142437,3.41353998 22.7871,3.4276652 C22.5766541,3.42463282 22.3680912,3.46793318 22.176,3.55453744 C22.0298532,3.61290681 21.8975001,3.70151287 21.7875,3.81462555 L21.6741,3.93303965 L20.9202,3.17180617 C20.9412,3.14431718 20.9664,3.10837004 21.0021,3.06396476 C21.073627,2.98176764 21.1508182,2.90474864 21.2331,2.83348018 C21.3537941,2.72455364 21.484594,2.62754484 21.6237,2.54378855 C21.7999872,2.44556402 21.9866523,2.36754399 22.1802,2.31118943 C22.40805,2.24036802 22.6452424,2.20472109 22.8837,2.20546256 C23.446484,2.18203949 23.9955216,2.38431601 24.4104,2.76792952 C24.7993183,3.13254873 25.0141917,3.64765693 25.0005,4.18255507 L25.0005,7.28035242 L23.6418,7.28035242 L23.6418,6.77920705 Z M23.3688,5.97356828 C23.5617879,5.74595146 23.6596421,5.45187251 23.6418,5.15312775 L23.6418,4.99876652 L22.5351,5.21022026 C22.1634,5.26942731 21.9786,5.45762115 21.9786,5.77057269 C21.9786,6.08352423 22.1886,6.27594714 22.6338,6.27594714 C22.9108096,6.28755781 23.1791179,6.17717584 23.3688,5.97356828 Z" id="Shape"></path>
                    <path d="M27.6675,2.91806167 C27.7074,2.86519824 27.7641,2.79964758 27.8355,2.72140969 C27.979216,2.59578197 28.1387992,2.48984169 28.3101,2.40634361 C28.5468395,2.27747923 28.8116828,2.20990175 29.0808,2.20969163 C29.6045545,2.19208901 30.1093652,2.40794468 30.4605,2.79964758 C30.8347559,3.24101998 31.0264441,3.81022529 30.996,4.38977974 L30.996,7.2845815 L29.6373,7.2845815 L29.6373,4.53568282 C29.649204,4.26404448 29.5523701,3.99895475 29.3685,3.79982379 C29.188371,3.6114531 28.9371313,3.50918501 28.6776,3.51859031 C28.3993398,3.50573995 28.1296233,3.61715886 27.9405,3.8230837 C27.7456404,4.06703369 27.6482804,4.37546372 27.6675,4.68792952 L27.6675,7.27612335 L26.3109,7.27612335 L26.3109,2.30907489 L27.6675,2.30907489 L27.6675,2.91806167 Z" id="Path"></path>
                    <path d="M35.0259,3.78079295 C34.9968066,3.7414885 34.9644935,3.70470784 34.9293,3.670837 C34.8456904,3.59818283 34.7523834,3.53768282 34.6521,3.49110132 C34.522244,3.42101949 34.3773303,3.3839958 34.23,3.38325991 C34.0732779,3.37447863 33.9179124,3.41673995 33.7869,3.50378855 C33.6897525,3.56476528 33.6285284,3.66988279 33.6231,3.78502203 C33.6331021,3.92832505 33.72368,4.05321836 33.8562,4.10643172 C34.0351681,4.20310402 34.223826,4.28036545 34.419,4.3369163 C34.6395,4.4045815 34.8642,4.48493392 35.091,4.58008811 C35.3195395,4.67544012 35.517288,4.83283078 35.6622,5.03471366 C35.8212774,5.26345308 35.9023375,5.53799706 35.8932,5.81709251 C35.8989383,6.25153972 35.7051986,6.66433082 35.3682,6.93568282 C34.9587889,7.25665219 34.4477592,7.41740754 33.9297,7.38819383 C33.677439,7.3895431 33.426093,7.3575519 33.1821,7.29303965 C32.9802303,7.24356025 32.7859592,7.16673651 32.6046,7.0646696 C32.4707502,6.98429133 32.3417261,6.8960323 32.2182,6.80035242 C32.1328511,6.73731497 32.0534189,6.66653441 31.9809,6.58889868 L31.9116,6.48317181 L32.6697,5.7261674 C32.7074252,5.77969583 32.7495752,5.82991856 32.7957,5.87629956 C32.9045114,5.97473617 33.0260055,6.05795258 33.1569,6.12370044 C33.3301044,6.22605026 33.5272725,6.28006291 33.7281,6.28017621 C33.9005561,6.29252059 34.0723145,6.24798479 34.2174,6.15330396 C34.3319789,6.07415027 34.3945316,5.93834932 34.3805321,5.7991469 C34.3665326,5.65994447 34.2782121,5.53952759 34.1502,5.48511013 C33.9699294,5.38337051 33.7781494,5.30385559 33.579,5.24828194 C33.3506756,5.17907126 33.1263323,5.09718381 32.907,5.00299559 C32.6849445,4.90459422 32.4913062,4.75108479 32.3442,4.55682819 C32.1846959,4.33549627 32.1033742,4.06676563 32.1132,3.79348018 C32.1262766,3.36567557 32.3298826,2.9665167 32.6676,2.70660793 C33.0451842,2.37967106 33.5306478,2.20692301 34.0284,2.22237885 C34.352019,2.21844941 34.6727502,2.28404893 34.9692,2.41480176 C35.1908107,2.50048625 35.3939973,2.62826729 35.5677,2.79118943 L35.7399,2.98572687 L35.0259,3.78079295 Z" id="Path"></path>
                    <path d="M38.1801,1.44 C38.0193589,1.5870428 37.8068575,1.66318961 37.59,1.65145374 C37.3199072,1.65145377 37.0703311,1.50636349 36.9352847,1.27083702 C36.8002383,1.03531056 36.8002383,0.745129974 36.9352847,0.509603506 C37.0703311,0.274077038 37.3199072,0.128986761 37.59,0.128986784 C37.8068575,0.117250917 38.0193589,0.193397729 38.1801,0.340440529 C38.4686907,0.650993785 38.4686907,1.13367582 38.1801,1.44422907 L38.1801,1.44 Z M38.2998,7.2845815 L36.9348,7.2845815 L36.9348,2.30907489 L38.2998,2.30907489 L38.2998,7.2845815 Z" id="Shape"></path>
                    <path d="M40.2633,0.845814978 L41.4729,0.845814978 L41.4729,2.4169163 L42.4767,2.4169163 L42.4767,3.63488987 L41.4729,3.63488987 L41.4729,5.61198238 C41.4709213,5.76281188 41.5327737,5.90736423 41.643,6.00951542 C41.7588589,6.11996561 41.9140767,6.17867054 42.0735,6.1723348 C42.1603456,6.17283823 42.2469777,6.16361862 42.3318,6.14484581 C42.396918,6.13382573 42.460411,6.11464596 42.5208,6.0877533 L42.5817,6.06872247 L42.5817,7.23806167 C42.2897891,7.34463789 41.9807214,7.39554967 41.6703,7.38819383 C40.6301,7.38819383 40.11,6.81303965 40.11,5.66273128 L40.11,3.63488987 L39.2532,3.63488987 L39.2532,2.4169163 L39.7068,2.4169163 C39.8584629,2.41794127 40.002588,2.35042425 40.0995,2.23295154 C40.2120993,2.10104765 40.2706585,1.93095775 40.2633,1.75718062 L40.2633,0.845814978 Z" id="Path"></path>
                    <path d="M45.0324,1.44 C44.8706498,1.58675597 44.657635,1.66281603 44.4402,1.65145374 C44.1701072,1.65145377 43.9205311,1.50636349 43.7854847,1.27083702 C43.6504383,1.03531056 43.6504383,0.745129974 43.7854847,0.509603506 C43.9205311,0.274077038 44.1701072,0.128986761 44.4402,0.128986784 C44.657635,0.1176245 44.8706498,0.193684555 45.0324,0.340440529 C45.3209907,0.650993785 45.3209907,1.13367582 45.0324,1.44422907 L45.0324,1.44 Z M45.15,7.2845815 L43.7871,7.2845815 L43.7871,2.30907489 L45.15,2.30907489 L45.15,7.2845815 Z" id="Shape"></path>
                    <path d="M50.6646,6.60792952 C50.1794479,7.10436713 49.5166978,7.383939 48.825,7.383939 C48.1333022,7.383939 47.4705521,7.10436713 46.9854,6.60792952 C46.485824,6.13953086 46.2020842,5.48311428 46.2020842,4.79577093 C46.2020842,4.10842757 46.485824,3.452011 46.9854,2.98361233 C47.4711166,2.48823437 48.1336554,2.20939826 48.825,2.20939826 C49.5163446,2.20939826 50.1788834,2.48823437 50.6646,2.98361233 C51.1618926,3.45329302 51.4440135,4.10923202 51.4440135,4.79577093 C51.4440135,5.48230984 51.1618926,6.13824883 50.6646,6.60792952 L50.6646,6.60792952 Z M47.9745,5.73462555 C48.1922631,5.97681795 48.5015902,6.11498378 48.82605,6.11498378 C49.1505098,6.11498378 49.4598369,5.97681795 49.6776,5.73462555 C50.1560322,5.20222886 50.1560322,4.39142753 49.6776,3.85903084 C49.4598369,3.61683843 49.1505098,3.47867261 48.82605,3.47867261 C48.5015902,3.47867261 48.1922631,3.61683843 47.9745,3.85903084 C47.4960678,4.39142753 47.4960678,5.20222886 47.9745,5.73462555 L47.9745,5.73462555 Z" id="Shape"></path>
                    <path d="M53.8125,2.91806167 C53.8641639,2.84948689 53.9195482,2.78383633 53.9784,2.72140969 C54.1225072,2.59630223 54.2820199,2.49040874 54.453,2.40634361 C54.6897395,2.27747923 54.9545828,2.20990175 55.2237,2.20969163 C55.7480179,2.19233201 56.2533747,2.40809278 56.6055,2.79964758 C56.9782421,3.24176968 57.1690622,3.81062822 57.1389,4.38977974 L57.1389,7.2845815 L55.7802,7.2845815 L55.7802,4.53568282 C55.7930631,4.26389527 55.6960966,3.99844266 55.5114,3.79982379 C55.331271,3.6114531 55.0800313,3.50918501 54.8205,3.51859031 C54.542809,3.50549248 54.2736354,3.61700482 54.0855,3.8230837 C53.8897232,4.06653708 53.7922467,4.37533599 53.8125,4.68792952 L53.8125,7.27612335 L52.4538,7.27612335 L52.4538,2.30907489 L53.8125,2.30907489 L53.8125,2.91806167 Z" id="Path"></path>
                    <path d="M62.5401,7.20634361 C62.3463495,7.12504525 62.1701719,7.00654105 62.0214,6.85744493 L61.8681,6.67348018 L61.8681,9.42237885 L60.5094,9.42237885 L60.5094,2.31753304 L61.8681,2.31753304 L61.8681,2.92651982 C61.8860189,2.89995813 61.9064111,2.87517648 61.929,2.85251101 C61.9584,2.82290749 62.0172,2.76581498 62.1075,2.68546256 C62.1987481,2.60687216 62.2963914,2.53613889 62.3994,2.47400881 C62.5283502,2.39957857 62.6658759,2.34134688 62.8089,2.30061674 C62.9778447,2.2496239 63.1533291,2.22397401 63.3297,2.22448509 C63.9666105,2.22274916 64.5736967,2.49605839 64.9971,2.97515419 C65.9380645,4.01535152 65.9380645,5.60579385 64.9971,6.64599119 C64.5739151,7.12564637 63.9668822,7.39970142 63.3297,7.39876652 C63.0553658,7.39613674 62.7852689,7.33031503 62.5401,7.20634361 L62.5401,7.20634361 Z M62.223,3.8061674 C61.9813917,4.07447921 61.853963,4.42752377 61.8681,4.78942731 C61.8542036,5.15256273 61.9815277,5.50683456 62.223,5.7769163 C62.4416686,6.02214254 62.7535461,6.16222391 63.08085,6.16222391 C63.4081539,6.16222391 63.7200314,6.02214254 63.9387,5.7769163 C64.1771198,5.50526602 64.3026828,5.15170996 64.2894,4.78942731 C64.3031193,4.42834971 64.1774297,4.07595291 63.9387,3.8061674 C63.7200314,3.56094116 63.4081539,3.42085979 63.08085,3.42085979 C62.7535461,3.42085979 62.4416686,3.56094116 62.223,3.8061674 L62.223,3.8061674 Z" id="Shape"></path>
                    <path d="M69.678,3.63066079 C69.5306118,3.59231739 69.3786934,3.57453017 69.2265,3.57779736 C68.9108136,3.56381124 68.6045383,3.68794045 68.3865,3.91823789 C68.1615234,4.19301257 68.04956,4.54409063 68.0736,4.89938326 L68.0736,7.2845815 L66.7149,7.2845815 L66.7149,2.30907489 L68.0736,2.30907489 L68.0736,2.91806167 C68.1114,2.87154185 68.1681,2.81022026 68.2395,2.73621145 C68.3842005,2.61660229 68.5446167,2.51769387 68.7162,2.44229075 C68.9544568,2.32093163 69.2177938,2.2579018 69.4848,2.25832386 L69.6948,2.25832386 L69.678,3.63066079 Z" id="Path"></path>
                    <path d="M74.5878,6.60792952 C74.1026479,7.10436713 73.4398978,7.383939 72.7482,7.383939 C72.0565022,7.383939 71.3937521,7.10436713 70.9086,6.60792952 C70.4101688,6.13888722 70.1272414,5.48271037 70.1272414,4.79577093 C70.1272414,4.10883148 70.4101688,3.45265463 70.9086,2.98361233 C71.3943166,2.48823437 72.0568554,2.20939826 72.7482,2.20939826 C73.4395446,2.20939826 74.1020834,2.48823437 74.5878,2.98361233 C75.0862312,3.45265463 75.3691586,4.10883148 75.3691586,4.79577093 C75.3691586,5.48271037 75.0862312,6.13888722 74.5878,6.60792952 L74.5878,6.60792952 Z M71.8977,5.73462555 C72.1154631,5.97681795 72.4247902,6.11498378 72.74925,6.11498378 C73.0737098,6.11498378 73.3830369,5.97681795 73.6008,5.73462555 C74.0792322,5.20222886 74.0792322,4.39142753 73.6008,3.85903084 C73.3830369,3.61683843 73.0737098,3.47867261 72.74925,3.47867261 C72.4247902,3.47867261 72.1154631,3.61683843 71.8977,3.85903084 C71.4192678,4.39142753 71.4192678,5.20222886 71.8977,5.73462555 L71.8977,5.73462555 Z" id="Shape"></path>
                    <path d="M79.149,3.68140969 L78.0402,3.68140969 L78.0402,7.27612335 L76.6773,7.27612335 L76.6773,3.68140969 L75.9738,3.68140969 L75.9738,2.46132159 L76.6773,2.46132159 L76.6773,1.8015859 C76.6773,0.652687225 77.1988,0.0782363931 78.2418,0.0782363931 C78.3924917,0.0780733208 78.5428943,0.0915192651 78.6912,0.118414097 C78.8089527,0.13690346 78.9253954,0.163037232 79.0398,0.196651982 L79.149,0.232599119 L79.149,1.39559471 C78.9912446,1.32490434 78.8196918,1.29093447 78.6471,1.29621145 C78.4866551,1.29131236 78.3306608,1.34974091 78.2124,1.45903084 C78.1009168,1.55866981 78.0380517,1.70225339 78.0402,1.8523348 L78.0402,2.46132159 L79.149,2.46132159 L79.149,3.68140969 Z" id="Path"></path>
                    <path d="M81.1608,5.25251101 C81.2129961,5.52486978 81.3623947,5.76857093 81.5808,5.93762115 C81.8333238,6.13188921 82.1452512,6.23135003 82.4628,6.21885463 C82.7075901,6.22078332 82.9498416,6.16882222 83.1726,6.06660793 C83.3452898,5.99847354 83.5019367,5.89475981 83.6325,5.76211454 L83.7753,5.6077533 L84.4788,6.52123348 L84.3885,6.61215859 C84.3060064,6.68872326 84.2182921,6.75938047 84.126,6.82361233 C83.9931066,6.92268118 83.8526726,7.01106003 83.706,7.08792952 C83.5187563,7.18101555 83.321444,7.25197204 83.118,7.29938326 C82.8740115,7.35963592 82.623719,7.39016291 82.3725,7.39030837 C81.6764341,7.40242723 81.0057234,7.12739627 80.5161,6.62907489 C80.0267684,6.14958759 79.7498619,5.49185199 79.7478756,4.80433747 C79.7459106,4.11682295 80.0190323,3.45748482 80.5056,2.97515419 C80.9818966,2.48169995 81.6387686,2.20719187 82.3221,2.21603524 C82.9813977,2.20018661 83.6183148,2.45722597 84.0842445,2.9271803 C84.5501741,3.39713464 84.8043619,4.03889749 84.7875,4.70273128 L84.7392,5.25885463 L81.1608,5.25251101 Z M81.5808,3.63066079 C81.3790549,3.80388372 81.2328871,4.03348403 81.1608,4.29039648 L83.4309,4.29039648 C83.3837145,4.03514354 83.2501351,3.80424474 83.0529,3.63700441 C82.8486244,3.46326384 82.5871924,3.37275091 82.32,3.38325991 C82.0543015,3.37565963 81.7945602,3.46333902 81.5871,3.63066079 L81.5808,3.63066079 Z" id="Shape"></path>
                    <path d="M88.5192,3.78079295 C88.4894783,3.74200699 88.4572058,3.70527252 88.4226,3.670837 C88.3389904,3.59818283 88.2456834,3.53768282 88.1454,3.49110132 C88.0127965,3.41785457 87.8640454,3.37931874 87.7128,3.37903084 C87.5560464,3.36994496 87.4005873,3.41223175 87.2697,3.49955947 C87.1725525,3.56053621 87.1113284,3.66565372 87.1059,3.78079295 C87.1155328,3.92359097 87.2052008,4.04835364 87.3369,4.10220264 C87.5166105,4.19885447 87.7059621,4.27611172 87.9018,4.33268722 C88.1223,4.40035242 88.347,4.48070485 88.5738,4.57585903 C88.8020045,4.67178466 88.9996111,4.82906231 89.145,5.03048458 C89.3040774,5.259224 89.3851375,5.53376798 89.376,5.81286344 C89.3807903,6.24710256 89.1872371,6.65949635 88.851,6.93145374 C88.4415889,7.25242312 87.9305592,7.41317846 87.4125,7.38396476 C87.1595554,7.38518353 86.9075321,7.35319598 86.6628,7.28881057 C86.4615832,7.23937455 86.2680002,7.16254355 86.0874,7.06044053 C85.9532326,6.98056532 85.8241787,6.8922859 85.701,6.79612335 C85.6155086,6.73245294 85.5354319,6.66172392 85.4616,6.5846696 L85.3944,6.47894273 L86.1525,5.72193833 C86.190025,5.77502271 86.2314406,5.82520674 86.2764,5.87207048 C86.386476,5.96986605 86.5085758,6.05301386 86.6397,6.11947137 C86.8122502,6.22155358 87.0086715,6.27556021 87.2088,6.27594714 C87.3819034,6.28814002 87.5542809,6.24363468 87.7002,6.14907489 C87.8054529,6.07398098 87.8668249,5.95117956 87.864,5.82132159 C87.8560306,5.67336007 87.7669949,5.54214212 87.633,5.48088106 C87.4527294,5.37914144 87.2609494,5.29962651 87.0618,5.24405286 C86.8333704,5.1751623 86.6090094,5.09326841 86.3898,4.99876652 C86.1674085,4.90092943 85.9736403,4.74731702 85.827,4.55259912 C85.6666055,4.33171438 85.5851874,4.06266533 85.596,3.7892511 C85.6091634,3.36195884 85.811843,2.96310531 86.1483,2.70237885 C86.5262977,2.37616158 87.0114751,2.20351536 87.5091,2.21814978 C87.833413,2.21404899 88.1548645,2.2796494 88.452,2.41057269 C88.6736107,2.49625718 88.8767973,2.62403822 89.0505,2.78696035 L89.2227,2.9814978 L88.5192,3.78079295 Z" id="Path"></path>
                    <path d="M93.1014,3.78079295 C93.0710528,3.742532 93.038812,3.70583357 93.0048,3.670837 C92.9211904,3.59818283 92.8278834,3.53768282 92.7276,3.49110132 C92.5943394,3.41759609 92.4448453,3.37905484 92.2929,3.37903084 C92.1368364,3.37025421 91.982139,3.4125342 91.8519,3.49955947 C91.7547525,3.56053621 91.6935284,3.66565372 91.6881,3.78079295 C91.6977328,3.92359097 91.7874008,4.04835364 91.9191,4.10220264 C92.0988105,4.19885447 92.2881621,4.27611172 92.484,4.33268722 C92.7045,4.40035242 92.9292,4.48070485 93.156,4.57585903 C93.3839414,4.67125573 93.5810006,4.82867643 93.7251,5.03048458 C93.8863297,5.25827266 93.9682787,5.53332706 93.9582,5.81286344 C93.9629903,6.24710256 93.7694371,6.65949635 93.4332,6.93145374 C93.0231442,7.2527408 92.5113447,7.41350358 91.9926,7.38396476 C91.7403463,7.38519251 91.489016,7.3532033 91.245,7.28881057 C91.0437832,7.23937455 90.8502002,7.16254355 90.6696,7.06044053 C90.5354326,6.98056532 90.4063787,6.8922859 90.2832,6.79612335 C90.1977086,6.73245294 90.1176319,6.66172392 90.0438,6.5846696 L89.9766,6.47894273 L90.7326,5.72193833 C90.7716217,5.77444152 90.8136953,5.82457322 90.8586,5.87207048 C90.968676,5.96986605 91.0907758,6.05301386 91.2219,6.11947137 C91.3944502,6.22155358 91.5908715,6.27556021 91.791,6.27594714 C91.9641034,6.28814002 92.1364809,6.24363468 92.2824,6.14907489 C92.3876529,6.07398098 92.4490249,5.95117956 92.4462,5.82132159 C92.4382306,5.67336007 92.3491949,5.54214212 92.2152,5.48088106 C92.0349294,5.37914144 91.8431494,5.29962651 91.644,5.24405286 C91.4155704,5.1751623 91.1912094,5.09326841 90.972,4.99876652 C90.7496085,4.90092943 90.5558403,4.74731702 90.4092,4.55259912 C90.2488055,4.33171438 90.1673874,4.06266533 90.1782,3.7892511 C90.1913634,3.36195884 90.394043,2.96310531 90.7305,2.70237885 C91.1084977,2.37616158 91.5936751,2.20351536 92.0913,2.21814978 C92.4155949,2.21424334 92.7370061,2.27983554 93.0342,2.41057269 C93.2558107,2.49625718 93.4589973,2.62403822 93.6327,2.78696035 L93.8049,2.9814978 L93.1014,3.78079295 Z" id="Path"></path>
                    <path d="M96.2556,1.44 C96.0944942,1.58642861 95.8822548,1.66248151 95.6655,1.65145374 C95.4608881,1.66100722 95.2615553,1.5843993 95.1153,1.44 C94.9735077,1.29255394 94.8976537,1.09320433 94.9053,0.888105727 C94.8929575,0.683029314 94.9683392,0.482433762 95.1124166,0.336954893 C95.2564939,0.191476023 95.4554999,0.115014841 95.6592,0.126872247 C95.8759548,0.115844482 96.0881942,0.191897378 96.2493,0.338325991 C96.5378907,0.648879248 96.5378907,1.13156128 96.2493,1.44211454 L96.2556,1.44 Z M96.3732,7.2845815 L95.0103,7.2845815 L95.0103,2.30907489 L96.3732,2.30907489 L96.3732,7.2845815 Z" id="Shape"></path>
                    <path d="M101.8878,6.60792952 C101.402648,7.10436713 100.739898,7.383939 100.0482,7.383939 C99.3565022,7.383939 98.6937521,7.10436713 98.2086,6.60792952 C97.7101688,6.13888722 97.4272414,5.48271037 97.4272414,4.79577093 C97.4272414,4.10883148 97.7101688,3.45265463 98.2086,2.98361233 C98.6943166,2.48823437 99.3568554,2.20939826 100.0482,2.20939826 C100.739545,2.20939826 101.402083,2.48823437 101.8878,2.98361233 C102.386231,3.45265463 102.669159,4.10883148 102.669159,4.79577093 C102.669159,5.48271037 102.386231,6.13888722 101.8878,6.60792952 L101.8878,6.60792952 Z M99.1998,5.73462555 C99.4171832,5.97671582 99.7261703,6.11485241 100.0503,6.11485241 C100.37443,6.11485241 100.683417,5.97671582 100.9008,5.73462555 C101.382182,5.20337666 101.382182,4.39027972 100.9008,3.85903084 C100.683417,3.61694057 100.37443,3.47880397 100.0503,3.47880397 C99.7261703,3.47880397 99.4171832,3.61694057 99.1998,3.85903084 C98.7184182,4.39027972 98.7184182,5.20337666 99.1998,5.73462555 L99.1998,5.73462555 Z" id="Shape"></path>
                    <path d="M105.0357,2.91806167 C105.088185,2.84954803 105.144265,2.78390399 105.2037,2.72140969 C105.346987,2.59521307 105.506649,2.48922016 105.6783,2.40634361 C105.914942,2.27722885 106.17985,2.20963505 106.449,2.20969163 C106.972701,2.19238002 107.477395,2.40818579 107.8287,2.79964758 C108.20239,3.24122923 108.393341,3.8104793 108.3621,4.38977974 L108.3621,7.2845815 L107.0055,7.2845815 L107.0055,4.53568282 C107.017404,4.26404448 106.92057,3.99895475 106.7367,3.79982379 C106.556077,3.61089298 106.303953,3.50857601 106.0437,3.51859031 C105.766161,3.50637138 105.497342,3.61773703 105.3087,3.8230837 C105.112923,4.06653708 105.015447,4.37533599 105.0357,4.68792952 L105.0357,7.27612335 L103.677,7.27612335 L103.677,2.30907489 L105.0357,2.30907489 L105.0357,2.91806167 Z" id="Path"></path>
                    <path d="M111.0312,2.91806167 C111.082864,2.84948689 111.138248,2.78383633 111.1971,2.72140969 C111.341207,2.59630223 111.50072,2.49040874 111.6717,2.40634361 C111.90844,2.27747923 112.173283,2.20990175 112.4424,2.20969163 C112.966718,2.19233201 113.472075,2.40809278 113.8242,2.79964758 C114.196942,3.24176968 114.387762,3.81062822 114.3576,4.38977974 L114.3576,7.2845815 L112.9989,7.2845815 L112.9989,4.53568282 C113.010804,4.26404448 112.91397,3.99895475 112.7301,3.79982379 C112.549971,3.6114531 112.298731,3.50918501 112.0392,3.51859031 C111.761509,3.50549248 111.492335,3.61700482 111.3042,3.8230837 C111.108423,4.06653708 111.010947,4.37533599 111.0312,4.68792952 L111.0312,7.27612335 L109.6725,7.27612335 L109.6725,2.30907489 L111.0312,2.30907489 L111.0312,2.91806167 Z" id="Path"></path>
                    <path d="M116.7726,5.25251101 C116.824796,5.52486978 116.974195,5.76857093 117.1926,5.93762115 C117.445124,6.13188921 117.757051,6.23135003 118.0746,6.21885463 C118.320097,6.2210923 118.563098,6.16912416 118.7865,6.06660793 C118.958908,5.99792702 119.11545,5.89428303 119.2464,5.76211454 L119.3892,5.6077533 L120.0927,6.52123348 L120.0003,6.61215859 C119.917806,6.68872326 119.830092,6.75938047 119.7378,6.82361233 C119.604907,6.92268118 119.464473,7.01106003 119.3178,7.08792952 C119.130556,7.18101555 118.933244,7.25197204 118.7298,7.29938326 C118.485811,7.35963592 118.235519,7.39016291 117.9843,7.39030837 C117.28828,7.40217977 116.617662,7.12718689 116.1279,6.62907489 C115.636168,6.14706478 115.358968,5.4852756 115.359364,4.79426702 C115.359759,4.10325844 115.637717,3.44179145 116.13,2.96035242 C116.606154,2.466687 117.263121,2.19213942 117.9465,2.20123348 C118.605798,2.18538485 119.242715,2.44242421 119.708644,2.91237854 C120.174574,3.38233287 120.428762,4.02409572 120.4119,4.68792952 L120.3615,5.24405286 L116.7726,5.25251101 Z M117.1926,3.63066079 C116.99152,3.80446714 116.845491,4.03384909 116.7726,4.29039648 L119.0427,4.29039648 C118.995417,4.0356772 118.862721,3.80502389 118.6668,3.63700441 C118.462764,3.46430113 118.202387,3.37389445 117.936,3.38325991 C117.668898,3.37483328 117.40756,3.46254911 117.1989,3.63066079 L117.1926,3.63066079 Z" id="Shape"></path>
                    <polygon id="Path" points="122.8227 7.2845815 121.4598 7.2845815 121.4598 0.177621145 122.8227 0.177621145"></polygon>
                    <polygon id="Path" points="125.5926 7.2845815 124.2297 7.2845815 124.2297 0.177621145 125.5926 0.177621145"></polygon>
                    <path d="M128.058,5.25251101 C128.110196,5.52486978 128.259595,5.76857093 128.478,5.93762115 C128.730524,6.13188921 129.042451,6.23135003 129.36,6.21885463 C129.605497,6.2210923 129.848498,6.16912416 130.0719,6.06660793 C130.244008,5.99734634 130.400439,5.89377531 130.5318,5.76211454 L130.6746,5.6077533 L131.3781,6.52123348 L131.2857,6.61215859 C131.203206,6.68872326 131.115492,6.75938047 131.0232,6.82361233 C130.890307,6.92268118 130.749873,7.01106003 130.6032,7.08792952 C130.415956,7.18101555 130.218644,7.25197204 130.0152,7.29938326 C129.771211,7.35963592 129.520919,7.39016291 129.2697,7.39030837 C128.57368,7.40217977 127.903062,7.12718689 127.4133,6.62907489 C126.925884,6.14787625 126.651242,5.48944775 126.651242,4.80211454 C126.651242,4.11478132 126.925884,3.45635282 127.4133,2.97515419 C127.889454,2.48148876 128.546421,2.20694118 129.2298,2.21603524 C129.889098,2.20018661 130.526015,2.45722597 130.991944,2.9271803 C131.457874,3.39713464 131.712062,4.03889749 131.6952,4.70273128 L131.6448,5.25885463 L128.058,5.25251101 Z M128.478,3.63066079 C128.276255,3.80388372 128.130087,4.03348403 128.058,4.29039648 L130.3281,4.29039648 C130.280817,4.0356772 130.148121,3.80502389 129.9522,3.63700441 C129.748776,3.46277725 129.488335,3.37084113 129.2214,3.37903084 C128.953773,3.37179716 128.692377,3.46103202 128.4843,3.63066079 L128.478,3.63066079 Z" id="Shape"></path>
                </g>
                <g id="Group">
                    <g fill="#404040" fill-rule="nonzero">
                        <path d="M3.7212,10.4881057 L10.6953,10.4881057 L10.6953,33.9023789 C10.6953,41.2081057 7.3017,44.3460793 0,43.9252863 L0,37.1820264 C2.604,37.3215859 3.7212,36.3362115 3.7212,33.9023789 L3.7212,10.4881057 Z M4.2315,7.21057269 C2.60664165,5.56783615 2.60664165,2.911459 4.2315,1.26872247 C5.00486982,0.461247565 6.07106643,0.00511603762 7.18515,0.00511603762 C8.29923357,0.00511603762 9.36543018,0.461247565 10.1388,1.26872247 C10.9411495,2.04677874 11.3944821,3.1201204 11.3944821,4.24176211 C11.3944821,5.36340383 10.9411495,6.43674549 10.1388,7.21480176 C8.50499458,8.85279358 5.8629906,8.85090215 4.2315,7.21057269 Z" id="Shape"></path>
                        <path d="M26.3907,34.5578855 C22.9488,34.5578855 20.0193,33.3885463 17.6484,30.9991189 C15.2775,28.6096916 14.07,25.6620264 14.07,22.2026432 C14.07,18.7432599 15.2754,15.8273128 17.64,13.44 C20.0046,11.0526872 22.9488,9.83259912 26.3907,9.83259912 C29.8326,9.83259912 32.76,11.0505727 35.1351,13.44 C37.5102,15.8294273 38.7156,18.7263436 38.7156,22.1962996 C38.7156,25.6662555 37.506,28.6118062 35.1351,30.9991189 C32.7642,33.3864317 29.8326,34.5578855 26.3907,34.5578855 Z M26.3907,27.7215859 C27.8198014,27.761291 29.2010628,27.2014386 30.2043,26.175859 C31.2291,25.1460793 31.7394,23.8350661 31.7394,22.1962996 C31.7394,20.557533 31.2291,19.2359471 30.2043,18.2146256 C29.2008479,17.1896048 27.8195343,16.6304973 26.3907,16.6710132 C24.9620024,16.6312662 23.580982,17.1902551 22.5771,18.2146256 C21.5544,19.2422907 21.042,20.557533 21.042,22.2026432 C21.042,23.8477533 21.5544,25.1629956 22.5771,26.1822026 C23.58184,27.2048056 24.9626719,27.7621869 26.3907,27.7215859 L26.3907,27.7215859 Z" id="Shape"></path>
                        <path d="M63.2688,13.44 C65.4549,15.8273128 66.5238,18.7263436 66.5238,22.1962996 C66.5238,25.6662555 65.4549,28.6118062 63.2688,30.9991189 C61.0827,33.3864317 58.4787,34.5578855 55.4106,34.5578855 C52.4328,34.5578855 50.1081,33.6232599 48.4806,31.7032599 L48.4806,33.9023789 L41.5044,33.9023789 L41.5044,1.12281938 L48.4806,1.12281938 L48.4806,12.6872247 C50.1081,10.7672247 52.4328,9.83048458 55.4106,9.83048458 C58.4787,9.83259912 61.0848,11.0505727 63.2688,13.44 Z M54.0162,27.9118943 C55.6437,27.9118943 56.9457,27.3959471 57.9684,26.3661674 C59.0373,25.3363877 59.5497,23.9302203 59.5497,22.1984141 C59.5497,20.4666079 59.0373,19.058326 57.96,18.0285463 C56.9457,16.9987665 55.65,16.4933921 54.0162,16.4933921 C52.3824,16.4933921 51.0762,17.0093392 50.0157,18.0391189 C48.993,19.0688987 48.4806,20.4750661 48.4806,22.2068722 C48.4806,23.9386784 48.993,25.3448458 50.0157,26.3746256 C51.0846,27.3938326 52.3866,27.9118943 54.0162,27.9118943 Z" id="Shape"></path>
                        <path d="M76.7088,25.0065198 C77.4984,27.2056388 79.359,28.2840529 82.2885,28.2840529 C84.1953,28.2840529 85.6842,27.6750661 86.7531,26.5036123 L92.3349,29.7346256 C90.0564,32.9656388 86.6649,34.5578855 82.1961,34.5578855 C78.2901,34.5578855 75.1737,33.3885463 72.8028,31.0456388 C70.4788,28.7055507 69.3161,25.7557709 69.3147,22.1962996 C69.3147,18.6840529 70.4781,15.7342731 72.7566,13.3913656 C75.0813,10.9955947 78.057,9.83259912 81.69,9.83259912 C85.0836,9.83259912 87.8745,11.0040529 90.1068,13.3913656 C92.3853,15.7342731 93.5025818,18.6777093 93.5025818,22.1962996 C93.5057498,23.1402246 93.4121531,24.0819627 93.2232,25.0065198 L76.7088,25.0065198 Z M86.5788,19.7603524 C85.8711,17.28 84.2415,16.0704846 81.6375,16.0704846 C78.9411,16.0704846 77.2674,17.2884581 76.5702,19.7688106 L86.5788,19.7603524 Z" id="Shape"></path>
                        <path d="M121.8,7.21057269 C120.175142,5.56783615 120.175142,2.911459 121.8,1.26872247 C122.573162,0.463248545 123.637991,0.00840131518 124.7505,0.00840131518 C125.863009,0.00840131518 126.927838,0.463248545 127.701,1.26872247 C128.503349,2.04677874 128.956682,3.1201204 128.956682,4.24176211 C128.956682,5.36340383 128.503349,6.43674549 127.701,7.21480176 C126.067927,8.84858058 123.430762,8.8466906 121.8,7.21057269 L121.8,7.21057269 Z M121.2897,33.9023789 L121.2897,10.4881057 L128.2638,10.4881057 L128.2638,33.9023789 L121.2897,33.9023789 Z" id="Shape"></path>
                        <path d="M147,17.2313656 L142.2099,17.2313656 L142.2099,25.5203524 C142.2099,27.3938326 143.6043,27.7215859 147,27.5355066 L147,33.9023789 C142.5816,34.3718062 139.5121,33.9488987 137.7915,32.6336564 C136.08,31.2803524 135.24,28.9395595 135.24,25.5203524 L135.24,17.2313656 L131.5125,17.2313656 L131.5125,10.4881057 L135.24,10.4881057 L135.24,6.04757709 L142.2162,3.93303965 L142.2162,10.4881057 L147,10.4881057 L147,17.2313656 Z" id="Path"></path>
                    </g>
                    <polygon id="Path" points="118.1439 33.9023789 110.145 33.9023789 101.8206 22.0081057 109.8657 10.4881057 117.8646 10.4881057 109.83 22.0081057"></polygon>
                    <polygon id="Path" fill="#404040" fill-rule="nonzero" points="118.1439 33.9023789 110.145 33.9023789 101.8206 22.0081057 109.83 22.0081057"></polygon>
                    <polygon id="Path" fill="#404040" fill-rule="nonzero" points="101.8206 22.0081057 109.8657 10.4881057 117.8646 10.4881057 109.83 22.0081057"></polygon>
                    <polyline id="Path" fill="#27C400" fill-rule="nonzero" points="109.83 22.0081057 101.5056 33.9023789 93.4962 33.9023789 101.8206 22.0081057 93.7755 10.4881057 101.7744 10.4881057 109.83 22.0081057"></polyline>
                </g>
            </g>
        </g>
    </g>
</svg>