<?xml version="1.0" encoding="UTF-8"?>
<svg width="32px" height="32px" viewBox="0 0 32 32" version="1.1" xmlns="http://www.w3.org/2000/svg" xmlns:xlink="http://www.w3.org/1999/xlink">
    <title>icone/burger</title>
    <g id="icone/burger" stroke="none" stroke-width="1" fill="none" fill-rule="evenodd">
        <rect id="Rectangle" x="0" y="0" width="32" height="32"></rect>
        <path d="M4.44502857,7.89005714 C3.64731429,7.89005714 3,7.24274286 3,6.44502857 L3,6.44502857 C3,5.64685714 3.64731429,5 4.44502857,5 L4.44502857,5 L28.5273143,5 C29.3250286,5 29.9723429,5.64685714 29.9723429,6.44502857 L29.9723429,6.44502857 C29.9723429,7.24274286 29.3250286,7.89005714 28.5273143,7.89005714 L28.5273143,7.89005714 L4.44502857,7.89005714 L4.44502857,7.89005714 Z" id="Path" fill="#222222"></path>
        <path d="M4.44548571,17.5229714 C3.64685714,17.5229714 3,16.8761143 3,16.0774857 L3,16.0774857 C3,15.2797714 3.64685714,14.6324571 4.44502857,14.6324571 L4.44502857,14.6324571 L28.5268571,14.6324571 C29.3245714,14.6324571 29.9714286,15.2797714 29.9714286,16.0774857 L29.9714286,16.0774857 C29.9714286,16.8756571 29.3245714,17.5225143 28.5268571,17.5225143 L28.5268571,17.5225143 L4.44548571,17.5225143 L4.44548571,17.5229714 Z" id="Path" fill="#222222"></path>
        <path d="M4.44548571,27.1554286 C3.64685714,27.1554286 3,26.5081143 3,25.7099429 L3,25.7099429 C3,24.9122286 3.64685714,24.2653714 4.44548571,24.2653714 L4.44548571,24.2653714 L28.5268571,24.2653714 C29.3250286,24.2653714 29.9723429,24.9122286 29.9723429,25.7099429 L29.9723429,25.7099429 C29.9723429,26.5081143 29.3250286,27.1554286 28.5268571,27.1554286 L28.5268571,27.1554286 L4.44548571,27.1554286 L4.44548571,27.1554286 Z" id="Path" fill="#222222"></path>
    </g>
</svg>