<?xml version="1.0" encoding="UTF-8"?>
<svg width="104px" height="104px" viewBox="0 0 104 104" version="1.1" xmlns="http://www.w3.org/2000/svg" xmlns:xlink="http://www.w3.org/1999/xlink">
    <title>icone/demission-icone</title>
    <g id="icone/demission-icone" stroke="none" stroke-width="1" fill="none" fill-rule="evenodd">
        <g id="Visuel" transform="translate(0.000000, 4.000000)" fill="#740AC4" fill-rule="nonzero">
            <path d="M97.5219817,0.593033117 C96.4776504,-0.171466108 95.0599514,-0.198887171 93.631271,0.522835197 L1.80039578,46.9938584 C0.00274029004,47.9009472 -0.0466760185,49.239095 0.0148198321,49.7688699 C0.077413823,50.3008386 0.432113104,51.5885317 2.39229334,52.0645613 L31.3524464,59.0547386 L47.0898935,83.6229138 C47.7509739,84.6539458 48.7601647,85.251725 49.8626975,85.2670807 C49.8758752,85.2670807 49.8879547,85.2670807 49.9011324,85.2670807 C50.9882912,85.2670807 52.0007764,84.6956258 52.6761326,83.6898212 L63.9957617,66.9289709 L84.4288562,71.8603748 C84.6583675,71.9174106 84.8944677,71.9437348 85.1261753,71.9437348 C85.6983063,71.9437348 86.2605541,71.7803053 86.7415395,71.4633178 C87.4146994,71.0169029 87.8781146,70.2984711 88.0087933,69.4933887 L98.7606839,4.27623025 C99.0198449,2.70226125 98.5685093,1.35862919 97.5219817,0.593033117 Z M6.31594824,49.0339855 L84.4881558,9.47636056 L32.0431766,55.2475983 L6.31594824,49.0339855 Z M48.292357,60.3314633 C48.2868663,60.3380443 48.2835719,60.3468191 48.2780812,60.3534001 C48.2638054,60.375337 48.2506277,60.3939833 48.2363519,60.4159201 C48.2034077,60.4630844 48.1759541,60.514636 48.1463044,60.5661876 C48.1232434,60.6056739 48.0957899,60.6429665 48.0771215,60.6835497 C48.0672383,60.7032929 48.0606494,60.7197455 48.0529624,60.7405855 C48.0299015,60.793234 48.0134294,60.8469792 47.994761,60.9007245 C47.9782889,60.9500824 47.9574242,60.9983435 47.9442466,61.0477014 C47.9431484,61.0564762 47.9387559,61.0641541 47.9365596,61.0718319 C47.9332652,61.0828004 47.9343633,61.0948656 47.9310689,61.1058341 C47.9200875,61.1540951 47.9156949,61.2067436 47.9080079,61.2561015 C47.900321,61.3120405 47.8904377,61.3668826 47.8871433,61.4206279 C47.8860451,61.4458552 47.884947,61.4732763 47.884947,61.4996005 C47.884947,61.5094721 47.8816526,61.5193437 47.8816526,61.5292153 L47.9365596,77.7811307 L35.0850249,57.7187844 L83.2791035,15.6581649 L48.292357,60.3314633 Z M51.8020131,78.0816655 L51.754793,63.9762709 L59.9864519,65.9637495 L51.8020131,78.0816655 Z M84.3607716,67.8744492 L53.1834734,60.3512064 L94.241837,7.92323157 L84.3607716,67.8744492 Z" id="Shape"></path>
            <path d="M102.689684,10.9284368 C101.645352,10.1639376 100.227653,10.1365166 98.7989729,10.8582389 L6.96809764,57.3292621 C5.17044215,58.2363509 5.12102584,59.5744987 5.1825217,60.1042737 C5.24511569,60.6362423 5.59981497,61.9239354 7.55999521,62.399965 L36.5201483,69.3901423 L52.2575954,93.9583176 C52.9186758,94.9893495 53.9278666,95.5871287 55.0303993,95.6024845 C55.043577,95.6024845 55.0556566,95.6024845 55.0688342,95.6024845 C56.155993,95.6024845 57.1684783,95.0310295 57.8438345,94.025225 L69.1634636,77.2643746 L89.5965581,82.1957785 C89.8260694,82.2528144 90.0621695,82.2791386 90.2938771,82.2791386 C90.8660082,82.2791386 91.4282559,82.115709 91.9092413,81.7987216 C92.5824013,81.3523067 93.0458164,80.6338748 93.1764951,79.8287924 L103.928386,14.611634 C104.187547,13.037665 103.736211,11.6940329 102.689684,10.9284368 Z" id="Path" opacity="0.100259"></path>
        </g>
    </g>
</svg>