<?xml version="1.0" encoding="UTF-8"?>
<svg width="64px" height="64px" viewBox="0 0 64 64" version="1.1" xmlns="http://www.w3.org/2000/svg" xmlns:xlink="http://www.w3.org/1999/xlink">
    <title>icone/gratuit-home</title>
    <defs>
        <path d="M30,0 C46.5685425,0 60,13.4314575 60,30 C60,46.5685425 46.5685425,60 30,60 C13.4314575,60 0,46.5685425 0,30 C0,13.4314575 13.4314575,0 30,0 Z M30,15 C21.7157288,15 15,21.7157288 15,30 C15,38.2842712 21.7157288,45 30,45 C38.2842712,45 45,38.2842712 45,30 C45,21.7157288 38.2842712,15 30,15 Z" id="path-1"></path>
    </defs>
    <g id="icone/gratuit-home" stroke="none" stroke-width="1" fill="none" fill-rule="evenodd">
        <rect id="Rectangle" x="0" y="0" width="64" height="64"></rect>
        <circle id="Oval" stroke="#740AC4" stroke-width="2.5" cx="32" cy="32" r="30"></circle>
        <g id="Group" transform="translate(2.000000, 2.000000)">
            <mask id="mask-2" fill="white">
                <use xlink:href="#path-1"></use>
            </mask>
            <g id="Oval-2"></g>
            <line x1="8.5" y1="8.5" x2="51.5" y2="50.5" id="Line" stroke="#740AC4" stroke-width="2.5" mask="url(#mask-2)"></line>
        </g>
        <path d="M32.6,44.36 C38.144,44.36 41.24,40.4 41.24,40.4 L39.44,38.6 C39.44,38.6 36.848,41.84 32.6,41.84 C28.28,41.84 24.68,38.24 23.96,35.54 L32.24,35.54 L32.24,33.2 L23.348,33.2 C23.348,33.2 23.24,32.3 23.24,31.4 C23.24,30.5 23.348,29.6 23.348,29.6 L32.24,29.6 L32.24,27.26 L23.96,27.26 C24.68,24.56 28.28,20.96 32.6,20.96 C36.848,20.96 39.26,24.2 39.26,24.2 L41.06,22.4 C41.06,22.4 38.144,18.44 32.6,18.44 C26.84,18.44 22.52,22.76 21.08,27.26 L17.48,27.26 L17.48,29.6 L20.648,29.6 C20.648,29.6 20.54,30.5 20.54,31.4 C20.54,32.3 20.648,33.2 20.648,33.2 L17.48,33.2 L17.48,35.54 L21.08,35.54 C22.52,40.04 26.84,44.36 32.6,44.36 Z" id="€" fill="#27C400" fill-rule="nonzero"></path>
    </g>
</svg>