<svg xmlns="http://www.w3.org/2000/svg" width="700" height="207.9" viewBox="0 0 700 207.9">
  <g id="Calque_2" data-name="Calque 2">
    <g>
      <g>
        <path d="M17.72,49.6H50.93V160.33c0,34.55-16.16,49.39-50.93,47.4V175.84c12.4.66,17.72-4,17.72-15.51Zm2.43-15.5A19.91,19.91,0,0,1,20.15,6,19.54,19.54,0,0,1,48.28,6a19.52,19.52,0,0,1,0,28.12A19.92,19.92,0,0,1,20.15,34.1Z" style="fill: #404040"/>
        <path d="M125.67,163.43c-16.39,0-30.34-5.53-41.63-16.83S67,121.36,67,105,72.74,74.85,84,63.56,109.28,46.5,125.67,46.5,156,52.26,167.31,63.56s17.05,25,17.05,41.41-5.76,30.34-17.05,41.63S142.06,163.43,125.67,163.43Zm0-32.33a24.54,24.54,0,0,0,18.16-7.31c4.88-4.87,7.31-11.07,7.31-18.82s-2.43-14-7.31-18.83a24.53,24.53,0,0,0-18.16-7.3,24.56,24.56,0,0,0-18.16,7.3C102.64,91,100.2,97.22,100.2,105s2.44,14,7.31,18.82A24.57,24.57,0,0,0,125.67,131.1Z" style="fill: #404040"/>
        <path d="M301.28,63.56c10.41,11.29,15.5,25,15.5,41.41s-5.09,30.34-15.5,41.63-22.81,16.83-37.42,16.83c-14.18,0-25.25-4.42-33-13.5v10.4H197.64V5.31h33.22V60c7.75-9.08,18.82-13.51,33-13.51C278.47,46.5,290.88,52.26,301.28,63.56ZM257.22,132c7.75,0,13.95-2.44,18.82-7.31,5.09-4.87,7.53-11.52,7.53-19.71S281.13,90.13,276,85.26C271.17,80.39,265,78,257.22,78s-14,2.44-19.05,7.31c-4.87,4.87-7.31,11.52-7.31,19.71s2.44,14.84,7.31,19.71C243.26,129.55,249.46,132,257.22,132Z" style="fill: #404040"/>
        <path d="M365.28,118.26c3.76,10.4,12.62,15.5,26.57,15.5,9.08,0,16.17-2.88,21.26-8.42l26.58,15.28c-10.85,15.28-27,22.81-48.28,22.81-18.6,0-33.44-5.53-44.73-16.61q-16.6-16.6-16.61-41.85c0-16.61,5.54-30.56,16.39-41.64C357.53,52,371.7,46.5,389,46.5c16.16,0,29.45,5.54,40.08,16.83,10.85,11.08,16.17,25,16.17,41.64a64.82,64.82,0,0,1-1.33,13.29Zm47-24.81C408.91,81.72,401.15,76,388.75,76c-12.84,0-20.81,5.76-24.13,17.49Z" style="fill: #404040"/>
        <path d="M580,34.1A19.91,19.91,0,0,1,580,6,19.54,19.54,0,0,1,608.1,6a19.52,19.52,0,0,1,0,28.12A19.92,19.92,0,0,1,580,34.1Zm-2.43,126.23V49.6h33.21V160.33Z" style="fill: #404040"/>
        <path d="M700,81.49H677.19v39.2c0,8.86,6.64,10.41,22.81,9.53v30.11q-31.56,3.33-43.85-6C648,147.93,644,136.86,644,120.69V81.49H626.25V49.6H644v-21l33.22-10v31H700Z" style="fill: #404040"/>
      </g>
      <path d="M562.59,160.33H524.5l-39.64-56.25L523.17,49.6h38.09L523,104.08Z" style="fill: #404040"/>
      <path d="M562.59,160.33H524.5l-39.64-56.25H523Z" style="fill: #404040"/>
      <path d="M484.86,104.08,523.17,49.6h38.09L523,104.08Z" style="fill: #404040"/>
      <path d="M523,104.08l-39.64,56.25H445.22l39.64-56.25L446.55,49.6h38.09L523,104.08" style="fill: #27c400"/>
    </g>
  </g>
</svg>
