<?xml version="1.0" encoding="UTF-8"?>
<svg width="104px" height="104px" viewBox="0 0 104 104" version="1.1" xmlns="http://www.w3.org/2000/svg" xmlns:xlink="http://www.w3.org/1999/xlink">
    <title>icone/licenciement-economique-icone</title>
    <g id="icone/licenciement-economique-icone" stroke="none" stroke-width="1" fill="none" fill-rule="evenodd">
        <g id="Visuel" transform="translate(0.000000, 5.000000)" fill="#740AC4">
            <path d="M67.1527094,8.2880598 L78.0650246,8.2880598 C82.262069,8.2880598 85.6197044,11.9055246 85.6197044,16.0795225 C85.6197044,20.5317869 85.6197044,25.2623178 85.6197044,29.7145821 C85.6197044,30.8276482 85.6197044,31.6624478 85.0600985,32.7755139 L86.7389163,32.7755139 C90.9359606,32.7755139 94.573399,36.1147122 94.573399,40.28871 L94.573399,50.5845714 C94.573399,54.7585693 90.9359606,58.3760341 86.7389163,58.3760341 L85.0600985,58.3760341 C85.6197044,59.2108337 85.6197044,60.3238998 85.6197044,61.4369659 L85.6197044,75.0720255 C85.6197044,79.2460234 82.262069,82.5852217 78.0650246,82.5852217 L7.83448276,82.5852217 C3.63743842,82.5852217 0,79.2460234 0,75.0720255 L0,16.0795225 C0,11.9055246 3.63743842,8.2880598 7.83448276,8.2880598 L43.3694581,8.2880598 L43.3694581,8.2880598 L60.7172414,0.218330611 C61.8364532,-0.338202436 63.235468,0.218330611 63.7950739,1.33139671 L67.1527094,8.2880598 Z" id="Path" opacity="0.1"></path>
            <path d="M81.2141684,43.7801861 L87.6669012,43.5012589 C88.7891156,43.2223317 89.91133,42.1066229 89.91133,40.7119869 L89.91133,32.9020252 L20.3340371,32.9020252 C18.9312691,32.9020252 17.8090547,31.7863164 17.8090547,30.6706076 C17.8090547,29.2759715 18.9312691,28.1602627 20.3340371,28.1602627 L33.2395027,28.1602627 L42.2172179,23.9763547 L16.4062867,23.9763547 C14.722965,23.9763547 13.320197,25.3709907 13.320197,27.0445539 L13.320197,86.177121 C13.320197,87.8506842 14.722965,89.2453202 16.4062867,89.2453202 L86.8252404,89.2453202 C88.508562,89.2453202 89.91133,87.8506842 89.91133,86.177121 L89.91133,72.509688 C89.91133,70.8361248 88.508562,69.4414888 86.8252404,69.4414888 C83.7391508,69.4414888 80.6530612,69.4414888 77.286418,69.4414888 C73.078114,69.4414888 69.7114708,66.0943623 69.7114708,61.6315271 L69.7114708,51.3112206 C69.7114708,44.3380405 75.6030964,43.7801861 81.2141684,43.7801861 Z M43.9566502,27.9724138 L74.5931034,27.9724138 L68.744326,15.9842365 L43.9566502,27.9724138 Z M80.2066151,27.9724138 L89.91133,27.9724138 L89.91133,26.906798 C89.91133,25.3083744 88.4841661,23.9763547 86.7715693,23.9763547 L77.9231527,23.9763547 L80.2066151,27.9724138 Z M75.8108374,18.9442174 L86.7231527,18.9442174 C90.920197,18.9442174 94.2778325,22.5616822 94.2778325,26.7356801 C94.2778325,31.1879445 94.2778325,35.9184754 94.2778325,40.3707398 C94.2778325,41.4838059 94.2778325,42.3186054 93.7182266,43.4316715 L95.3970443,43.4316715 C99.5940887,43.4316715 103.231527,46.7708698 103.231527,50.9448677 L103.231527,61.2407291 C103.231527,65.4147269 99.5940887,69.0321917 95.3970443,69.0321917 L93.7182266,69.0321917 C94.2778325,69.8669913 94.2778325,70.9800574 94.2778325,72.0931235 L94.2778325,85.7281832 C94.2778325,89.902181 90.920197,93.2413793 86.7231527,93.2413793 L16.4926108,93.2413793 C12.2955665,93.2413793 8.65812808,89.902181 8.65812808,85.7281832 L8.65812808,26.7356801 C8.65812808,22.5616822 12.2955665,18.9442174 16.4926108,18.9442174 L52.0275862,18.9442174 L52.0275862,18.9442174 L69.3753695,10.8744882 C70.4945813,10.3179552 71.8935961,10.8744882 72.453202,11.9875543 L75.8108374,18.9442174 Z M95.5027151,48.6187192 C89.369229,48.6187192 83.5145377,48.6187192 77.3810517,48.6187192 C75.7082827,48.6187192 74.5931034,49.7210803 74.5931034,51.374622 L74.5931034,61.5714625 C74.5931034,63.2250042 75.7082827,64.6029557 77.3810517,64.6029557 C83.5145377,64.6029557 89.369229,64.6029557 95.5027151,64.6029557 C97.175484,64.6029557 98.5694581,63.2250042 98.5694581,61.5714625 L98.5694581,51.374622 C98.5694581,49.7210803 97.175484,48.6187192 95.5027151,48.6187192 Z" id="Shape" fill-rule="nonzero"></path>
        </g>
    </g>
</svg>