<?xml version="1.0" encoding="UTF-8"?>
<svg width="104px" height="104px" viewBox="0 0 104 104" version="1.1" xmlns="http://www.w3.org/2000/svg" xmlns:xlink="http://www.w3.org/1999/xlink">
    <title>icone/licenciement-seul-icone</title>
    <g id="icone/licenciement-seul-icone" stroke="none" stroke-width="1" fill="none" fill-rule="evenodd">
        <g id="Visuel" transform="translate(18.000000, 0.000000)">
            <path d="M29.9336703,10.1767743 C29.9336703,8.34604079 31.6669259,7.12555175 33.4001815,7.63408885 L33.4001815,7.63408885 L67.249644,18.4150754 C68.3711624,18.7201976 69.0848559,19.7372718 68.8809434,20.9577609 L68.8809434,20.9577609 L68.8809434,90.6273436 C68.8809434,91.7461252 68.1672499,92.8649068 67.0457316,93.1700291 L67.0457316,93.1700291 L33.2982253,103.849308 C31.5649697,104.459553 29.8317141,103.137356 29.8317141,101.306623 L29.8317141,101.306623 L29.8413253,92.4090723 L10.6506024,92.4096386 C9.15122694,92.4096386 7.92522847,91.2391725 7.83647053,89.7621039 L7.8313253,89.5903614 L7.8313253,22.5542169 C7.8313253,20.9971731 9.09355866,19.7349398 10.6506024,19.7349398 L10.6506024,19.7349398 L29.9223253,19.7340723 Z" id="Shape" fill="#740AC4" opacity="0.1"></path>
            <rect id="Rectangle" stroke="#740AC4" stroke-width="4.38554217" x="0" y="11.9036145" width="21.9277108" height="68.2891566" rx="0.626506024"></rect>
            <path d="M22.739228,0.250832583 L55.9440473,10.5141404 C56.2065381,10.5952739 56.3855422,10.8379623 56.3855422,11.1127059 L56.3855422,80.3571736 C56.3855422,80.6319172 56.2065381,80.8746057 55.9440473,80.9557392 L22.739228,91.2190469 C22.4086494,91.3212258 22.0578302,91.1360712 21.9556514,90.8054926 C21.9371294,90.7455685 21.9277108,90.6832027 21.9277108,90.6204814 L21.9277108,0.849398093 C21.9277108,0.503388371 22.2082071,0.222892069 22.5542169,0.222892069 C22.6169382,0.222892069 22.6793039,0.232310588 22.739228,0.250832583 Z" id="Rectangle-Copy" stroke="#740AC4" stroke-width="4.38554217"></path>
            <path d="M31.2267135,42.5646721 C33.0619253,42.5646721 34.4893123,43.988576 34.4893123,45.8193096 C34.4893123,47.6500431 33.0619253,49.073947 31.2267135,49.073947 C29.3915016,49.073947 27.9641147,47.6500431 27.9641147,45.8193096 C27.9641147,43.988576 29.3915016,42.5646721 31.2267135,42.5646721 Z" id="Path" fill="#740AC4"></path>
        </g>
    </g>
</svg>