<?xml version="1.0" encoding="UTF-8"?>
<svg width="24px" height="24px" viewBox="0 0 24 24" version="1.1" xmlns="http://www.w3.org/2000/svg" xmlns:xlink="http://www.w3.org/1999/xlink">
    <title>icone/linkedin-blanc</title>
    <g id="icone/linkedin-blanc" stroke="none" stroke-width="1" fill="none" fill-rule="evenodd">
        <rect id="ViewBox" fill-rule="nonzero" x="0" y="0" width="24" height="24"></rect>
        <path d="M19.36,4 L4.64,4 C4.286,4 4,4.286 4,4.64 L4,19.36 C4,19.714 4.286,20 4.64,20 L19.36,20 C19.714,20 20,19.714 20,19.36 L20,4.64 C20,4.286 19.714,4 19.36,4 Z M8.746,17.634 L6.372,17.634 L6.372,9.998 L8.746,9.998 L8.746,17.634 Z M7.56,8.954 C6.80005618,8.954 6.184,8.33794382 6.184,7.578 C6.184,6.81805618 6.80005618,6.202 7.56,6.202 C8.31994382,6.202 8.936,6.81805618 8.936,7.578 C8.934,8.338 8.318,8.954 7.56,8.954 L7.56,8.954 Z M17.634,17.634 L15.262,17.634 L15.262,13.92 C15.262,13.034 15.246,11.896 14.028,11.896 C12.794,11.896 12.604,12.86 12.604,13.856 L12.604,17.634 L10.234,17.634 L10.234,9.998 L12.51,9.998 L12.51,11.042 L12.542,11.042 C12.858,10.442 13.632,9.808 14.788,9.808 C17.192,9.808 17.634,11.39 17.634,13.446 L17.634,17.634 L17.634,17.634 Z" id="Icon-Shape" fill="#FFFFFF" fill-rule="nonzero"></path>
    </g>
</svg>