<?xml version="1.0" encoding="UTF-8"?>
<svg width="18px" height="12px" viewBox="0 0 18 12" version="1.1" xmlns="http://www.w3.org/2000/svg" xmlns:xlink="http://www.w3.org/1999/xlink">
    <title>icone/list-arrow</title>
    <g id="Symbols" stroke="none" stroke-width="1" fill="none" fill-rule="evenodd">
        <g id="liste" transform="translate(-3.000000, -6.000000)" fill-rule="nonzero">
            <g id="Group">
                <rect id="ViewBox" x="0" y="0" width="24" height="24"></rect>
                <path d="M15.219,6.969 C15.3597064,6.82793745 15.5507591,6.74865932 15.75,6.74865932 C15.9492409,6.74865932 16.1402936,6.82793745 16.281,6.969 L20.781,11.469 C20.9220626,11.6097064 21.0013407,11.8007591 21.0013407,12 C21.0013407,12.1992409 20.9220626,12.3902936 20.781,12.531 L16.281,17.031 C15.9877368,17.3242632 15.5122632,17.3242632 15.219,17.031 C14.9257368,16.7377368 14.9257368,16.2622632 15.219,15.969 L19.1895,12 L15.219,8.031 C15.0779374,7.89029361 14.9986593,7.69924089 14.9986593,7.5 C14.9986593,7.30075911 15.0779374,7.10970639 15.219,6.969 L15.219,6.969 Z" id="Icon-Path" fill="#740AC4"></path>
                <path d="M3,12 C3,11.5857864 3.33578644,11.25 3.75,11.25 L19.5,11.25 C19.9142136,11.25 20.25,11.5857864 20.25,12 C20.25,12.4142136 19.9142136,12.75 19.5,12.75 L3.75,12.75 C3.33578644,12.75 3,12.4142136 3,12 Z" id="Icon-Path" fill="#740AC4"></path>
            </g>
        </g>
    </g>
</svg>