<?xml version="1.0" encoding="UTF-8"?>
<svg width="64px" height="64px" viewBox="0 0 64 64" version="1.1" xmlns="http://www.w3.org/2000/svg" xmlns:xlink="http://www.w3.org/1999/xlink">
    <title>icone/meme-endroit</title>
    <g id="icone/meme-endroit" stroke="none" stroke-width="1" fill="none" fill-rule="evenodd">
        <rect id="Rectangle" x="0" y="0" width="64" height="64"></rect>
        <path d="M25.1567994,37.3055904 C26.0141131,37.3055904 26.6877168,37.9790732 26.703026,38.8056203 L26.703026,38.8056203 L26.703026,53.8518386 C26.703026,54.6936921 26.0141131,55.3824813 25.1721086,55.3824813 C24.3301041,55.3824813 23.6411912,54.6936921 23.6411912,53.8518386 L23.6411912,53.8518386 L23.6411912,42.5097758 L2.62169597,63.5255007 C2.3155125,63.8163229 1.93278316,63.9693871 1.53474465,63.9693871 C1.13670614,63.9693871 0.753976797,63.8316293 0.447793326,63.5255007 C-0.149264442,62.9285501 -0.149264442,61.9642451 0.447793326,61.3672945 L0.447793326,61.3672945 L21.4519794,40.3668759 L10.1078818,40.3668759 C9.26587729,40.3668759 8.57696448,39.6780867 8.57696448,38.8362332 C8.57696448,37.9943797 9.26587729,37.3055904 10.1078818,37.3055904 L10.1078818,37.3055904 Z M61.3936132,0.463019432 C61.990671,-0.133931241 62.9551489,-0.133931241 63.5522067,0.463019432 C64.1492644,1.0599701 64.1492644,2.02427504 63.5522067,2.62122571 L63.5522067,2.62122571 L42.5480206,23.6216442 L53.8921182,23.6216442 C54.7341227,23.6216442 55.4230355,24.3104335 55.4230355,25.152287 C55.4230355,25.9941405 54.7341227,26.6829297 53.8921182,26.6829297 L53.8921182,26.6829297 L38.8432006,26.6829297 C37.9858869,26.6829297 37.3122832,26.0094469 37.3122832,25.1675934 L37.3122832,25.1675934 L37.3122832,10.1213752 C37.3122832,9.27952167 38.001196,8.59073244 38.8432006,8.59073244 C39.6852051,8.59073244 40.3741179,9.27952167 40.3741179,10.1213752 L40.3741179,10.1213752 L40.3741179,21.463438 Z" id="Combined-Shape" fill="#27C400" fill-rule="nonzero"></path>
        <path d="M53.876809,37.3055904 C54.7188135,37.3055904 55.4077263,37.9943797 55.4077263,38.8362332 C55.4077263,39.6780867 54.7188135,40.3668759 53.876809,40.3668759 L53.876809,40.3668759 L42.5327114,40.3668759 L63.5522067,61.3979073 C64.1492644,61.994858 64.1492644,62.9591629 63.5522067,63.5561136 C63.2460232,63.8469357 62.8632939,64 62.4652554,64 C62.0672168,64 61.6844875,63.8622422 61.378304,63.5561136 L61.378304,63.5561136 L40.3588088,42.5403886 L40.3588088,53.8824514 C40.3588088,54.7243049 39.6698959,55.4130942 38.8278914,55.4130942 C37.9858869,55.4130942 37.296974,54.7243049 37.296974,53.8824514 L37.296974,53.8824514 L37.296974,38.8362332 C37.296974,37.9943797 37.9858869,37.3055904 38.8278914,37.3055904 L38.8278914,37.3055904 Z M0.4631025,0.447713004 C1.06016027,-0.149237668 2.0246382,-0.149237668 2.62169597,0.447713004 L2.62169597,0.447713004 L23.6258821,21.463438 L23.6258821,10.1213752 C23.6258821,9.27952167 24.3147949,8.59073244 25.1567994,8.59073244 C26.0141131,8.59073244 26.6877168,9.26421525 26.7183351,10.1060688 L26.7183351,10.1060688 L26.7183351,25.152287 C26.7183351,25.9941405 26.0294223,26.6829297 25.1874178,26.6829297 L25.1874178,26.6829297 L10.1385002,26.6829297 C9.29649563,26.6829297 8.60758283,25.9941405 8.60758283,25.152287 C8.60758283,24.3104335 9.29649563,23.6216442 10.1385002,23.6216442 L10.1385002,23.6216442 L21.4825978,23.6216442 L0.4631025,2.60591928 C-0.133955269,2.00896861 -0.133955269,1.04466368 0.4631025,0.447713004 Z" id="Path-2" fill="#740AC4" fill-rule="nonzero"></path>
    </g>
</svg>