<?xml version="1.0" encoding="UTF-8"?>
<svg width="16px" height="16px" viewBox="0 0 16 16" version="1.1" xmlns="http://www.w3.org/2000/svg" xmlns:xlink="http://www.w3.org/1999/xlink">
    <title>icone/nav-account</title>
    <g id="icone/nav-account" stroke="none" stroke-width="1" fill="none" fill-rule="evenodd">
        <rect id="ViewBox" x="0" y="0" width="16" height="16"></rect>
        <path d="M8,0 C10.209139,0 12,1.790861 12,4 C12,6.209139 10.209139,8 8,8 C5.790861,8 4,6.209139 4,4 C4,1.790861 5.790861,0 8,0 M8,2 C6.8954305,2 6,2.8954305 6,4 C6,5.1045695 6.8954305,6 8,6 C9.1045695,6 10,5.1045695 10,4 C10,2.8954305 9.1045695,2 8,2 M8,9 C10.67,9 16,10.33 16,13 L16,16 L0,16 L0,13 C0,10.33 5.33,9 8,9 M8,10.9 C5.03,10.9 1.9,12.36 1.9,13 L1.9,14.1 L14.1,14.1 L14.1,13 C14.1,12.36 10.97,10.9 8,10.9 Z" id="Shape" fill="#222222" fill-rule="nonzero"></path>
    </g>
</svg>