<?xml version="1.0" encoding="UTF-8"?>
<svg width="104px" height="104px" viewBox="0 0 104 104" version="1.1" xmlns="http://www.w3.org/2000/svg" xmlns:xlink="http://www.w3.org/1999/xlink">
    <title>icone/rupture-icone</title>
    <g id="icone/rupture-icone" stroke="none" stroke-width="1" fill="none" fill-rule="evenodd">
        <g id="Visuel" transform="translate(0.000000, 13.000000)" fill="#740AC4" fill-rule="nonzero">
            <path d="M87.3572426,9.62408233 C87.1541186,9.25070092 86.8078842,8.97565864 86.3985584,8.86195406 C85.9846161,8.74824948 85.5506692,8.80410832 85.1828913,9.01560888 L74.2172667,15.3707752 C73.4770947,15.8010089 73.2154955,16.7413769 73.6278991,17.4896762 L73.9356629,18.049076 L67.8782941,20.1090119 C67.1296585,19.4184292 66.22868,18.8766036 65.184399,18.5990645 L42.1621271,12.4851363 C38.505893,11.5140374 34.6296079,11.4848429 30.9641408,12.4083089 L22.5493011,14.5180865 L10.3208832,11.1099249 C9.91309604,10.9916107 9.47145503,11.051536 9.10213846,11.2666529 C8.73436077,11.4817699 8.46968381,11.8367126 8.36812179,12.2500442 L0.046188353,46.0771686 C-0.16001344,46.9115146 0.343180489,47.7566165 1.1772203,47.9748065 L13.187703,51.1155126 L23.2874534,59.1486864 C22.9807475,60.5716267 23.1324173,62.1010691 23.877879,63.4816583 C24.6842202,64.9736473 26.0245316,66.0615239 27.6510632,66.5440003 C29.2760561,67.0249402 30.994917,66.8451638 32.4875714,66.033866 L33.5155026,65.4745621 C33.4878039,66.5055864 33.7093939,67.5519763 34.2110488,68.5215386 L34.3833965,68.8565062 C35.1774271,70.3915185 36.5285102,71.5116627 38.1842796,72.0095045 C39.8415877,72.5134925 41.5866086,72.3214239 43.0992676,71.4809317 L43.7255669,71.132135 C43.7024847,72.2015731 43.9486957,73.2909862 44.4980541,74.2912796 C45.3136282,75.781732 46.6616338,76.861926 48.2958595,77.3336465 C48.8806108,77.502667 49.4761336,77.5871771 50.068579,77.5871771 C51.1303641,77.5871771 52.1829164,77.3167445 53.138523,76.7866351 L79.3769267,62.2186147 C83.8318078,59.7217227 87.4357221,55.5561386 89.5223608,50.4901368 L90.5310567,48.0408778 C90.7267752,48.2433181 90.9546166,48.4112822 91.2319887,48.486477 C91.3674048,48.5218175 91.5058985,48.5402562 91.6428534,48.5402562 C91.9259961,48.5402562 92.2076,48.4634288 92.4553499,48.3143835 L103.236316,41.8362933 C103.959561,41.4014499 104.211927,40.4749109 103.807218,39.735831 L87.3572426,9.62408233 Z" id="Path" opacity="0.100259"></path>
            <path d="M87.3572426,0.819849521 C87.1541186,0.446468115 86.8078842,0.171425839 86.3985584,0.0577212585 C85.9846161,-0.055983322 85.5506692,-0.00012448777 85.1828913,0.211376072 L74.2172667,6.56654239 C73.4770947,6.99677609 73.2154955,7.9371441 73.6278991,8.68544337 L73.9356629,9.24484323 L67.8782941,11.3047791 C67.1296585,10.6141964 66.22868,10.0723708 65.184399,9.79483165 L42.1621271,3.68090349 C38.505893,2.70980457 34.6296079,2.68061012 30.9641408,3.60407608 L22.5493011,5.7138537 L10.3208832,2.30569211 C9.91309604,2.18737786 9.47145503,2.24730321 9.10213846,2.46242014 C8.73436077,2.67753706 8.46968381,3.0324798 8.36812179,3.44581144 L0.046188353,37.2729358 C-0.16001344,38.1072818 0.343180489,38.9523837 1.1772203,39.1705737 L13.187703,42.3112798 L23.2874534,50.3444536 C22.9807475,51.7673939 23.1324173,53.2968363 23.877879,54.6774255 C24.6842202,56.1694145 26.0245316,57.257291 27.6510632,57.7397675 C29.2760561,58.2207074 30.994917,58.040931 32.4875714,57.2296332 L33.5155026,56.6703293 C33.4878039,57.7013536 33.7093939,58.7477435 34.2110488,59.7173058 L34.3833965,60.0522734 C35.1774271,61.5872857 36.5285102,62.7074299 38.1842796,63.2052717 C39.8415877,63.7092597 41.5866086,63.5171911 43.0992676,62.6766989 L43.7255669,62.3279022 C43.7024847,63.3973403 43.9486957,64.4867534 44.4980541,65.4870468 C45.3136282,66.9774992 46.6616338,68.0576932 48.2958595,68.5294137 C48.8806108,68.6984342 49.4761336,68.7829443 50.068579,68.7829443 C51.1303641,68.7829443 52.1829164,68.5125117 53.138523,67.9824023 L79.3769267,53.4143819 C83.8318078,50.9174899 87.4357221,46.7519058 89.5223608,41.685904 L90.5310567,39.236645 C90.7267752,39.4390853 90.9546166,39.6070494 91.2319887,39.6822442 C91.3674048,39.7175847 91.5058985,39.7360234 91.6428534,39.7360234 C91.9259961,39.7360234 92.2076,39.659196 92.4553499,39.5101507 L103.236316,33.0320605 C103.959561,32.5972171 104.211927,31.6706781 103.807218,30.9315982 L87.3572426,0.819849521 Z M12.5565036,39.0686586 L3.3015873,36.6482387 L10.8277146,6.05278557 L20.3597884,8.7102017 L12.5565036,39.0686586 Z M77.8299066,50.5990207 L51.7680228,65.0809029 C51.0193209,65.4933567 50.1586205,65.591487 49.3408784,65.3553611 C48.5216021,65.1192351 47.8434746,64.5764519 47.4353708,63.8282087 C46.6007522,62.3041229 47.1592103,60.3752495 48.676559,59.5304092 L57.185372,54.7940901 C57.9432793,54.3709033 58.2163714,53.4156663 57.7944594,52.6582232 C57.3710134,51.8977136 56.4121225,51.6324552 55.6572836,52.0495088 L41.7572032,59.7864679 C40.9992959,60.2096546 40.1247876,60.3031852 39.2917034,60.0532596 C38.4616875,59.8018008 37.7850942,59.2406183 37.3892641,58.4739754 L37.2174309,58.1397192 C36.5009477,56.7551624 36.9182569,55.0578152 38.1302949,54.143977 L53.7609815,45.6403752 L53.7655842,45.6373087 C54.5265599,45.2233216 54.8088574,44.2711512 54.3946165,43.5091083 C53.9803757,42.7485986 53.0260875,42.4664741 52.2651118,42.8789279 L37.0287212,51.1295375 C36.830806,51.2368675 36.6405622,51.3533972 36.4595236,51.4775933 L31.2017337,54.3387042 C30.4545661,54.7465581 29.5938657,54.8354886 28.7776578,54.5932296 C27.9629842,54.3525038 27.2909935,53.8066541 26.8828896,53.0538108 C26.0513395,51.5113255 26.6297425,49.580919 28.1716388,48.7498783 L49.276441,37.375966 C50.0374167,36.9665787 50.3227826,36.0205416 49.9177471,35.2569653 C49.5111774,34.4949223 48.5706973,34.1989983 47.8020505,34.6037857 L32.1498849,42.7945972 C30.7046447,43.550507 28.8927247,43.0598556 28.0258875,41.6798987 C27.5533462,40.9285888 27.4214028,40.043883 27.6515366,39.1883096 C27.8832046,38.331203 28.4431968,37.633558 29.2271859,37.2226375 L36.0667619,33.6393491 C36.8354087,33.236095 37.1330484,32.2869912 36.7295472,31.5203484 C36.326046,30.750639 35.3748263,30.4593148 34.6092479,30.857969 L27.7696719,34.4412574 C26.2216386,35.2523656 25.0740382,36.6844542 24.6183733,38.369535 C24.1642426,40.0576824 24.4358006,41.8730925 25.3670752,43.3527131 C25.9408755,44.2665512 26.7233302,44.9841289 27.6162493,45.4824467 L26.680372,45.9868977 C26.0126005,46.3464532 25.4546219,46.8241676 24.9778614,47.3606258 L15.957672,40.1788121 L24.0655727,8.60759973 L31.9519698,6.62899048 C35.0925287,5.8393484 38.4095238,5.86081443 41.5439459,6.69645513 L64.4974895,12.7973984 C66.1728633,13.2420512 67.2253419,14.9225322 66.8939492,16.6229459 C66.7144449,17.5429172 66.1759319,18.3187597 65.3766005,18.809411 C64.5788034,19.2969959 63.6398575,19.4257918 62.7377331,19.1697332 L49.4344663,15.3656516 C48.9726645,15.2307225 48.4863152,15.319653 48.0996903,15.5925778 C47.7115314,15.8655026 47.4660553,16.302489 47.4338366,16.774741 C47.4307682,16.8130732 47.136197,20.6186879 43.9496112,22.9048167 C40.9992961,25.0207507 36.5009478,25.3013421 30.569633,23.7450572 C29.7442199,23.5288639 28.8743141,24.0241152 28.6518515,24.8643556 C28.4309231,25.7015295 28.9326147,26.5601694 29.7718359,26.7809625 C32.5334413,27.5077398 35.0541734,27.8695953 37.326361,27.8695953 C40.7354094,27.8695953 43.579863,27.0523541 45.8290372,25.4224715 C48.5891083,23.4200005 49.7474483,20.673886 50.2307293,18.8584759 L61.8724302,22.1872389 C63.6091732,22.6855567 65.4809279,22.4264315 67.0197558,21.4865273 C68.5555153,20.5450899 69.6340756,18.9918717 69.977742,17.2239933 C70.1956979,16.1073782 70.0855213,15.0032209 69.7479919,13.9860775 L75.5651986,12.0061266 L88.5925926,35.7047801 L86.6639756,40.390405 C84.8505212,44.7955348 81.7452494,48.4033558 77.8299066,50.5990207 Z M92.0926959,36.3173358 L77.037037,8.66127516 L85.2458681,3.85172736 L100.148148,31.4257456 L92.0926959,36.3173358 Z" id="Shape"></path>
        </g>
    </g>
</svg>