<?xml version="1.0" encoding="UTF-8"?>
<svg width="64px" height="64px" viewBox="0 0 64 64" version="1.1" xmlns="http://www.w3.org/2000/svg" xmlns:xlink="http://www.w3.org/1999/xlink">
    <title>icone/specialistes</title>
    <g id="icone/specialistes" stroke="none" stroke-width="1" fill="none" fill-rule="evenodd">
        <rect id="Rectangle" x="0" y="0" width="64" height="64"></rect>
        <path d="M63.7974054,31.85849 L49.5931015,9.48883386 C49.4812566,9.26735211 49.1457218,9.04587037 48.922032,9.04587037 C48.5864973,8.9351295 48.3628074,9.04587037 48.0272727,9.15661124 L41.3165779,13.3647644 C40.7573533,13.696987 40.6455084,14.3614322 40.9810432,14.9151366 L41.3165779,15.4688409 C38.6323,15.0258774 34.4940382,14.8043957 31.8097603,16.0225453 L31.6979154,16.0225453 C28.7899476,15.0258774 23.8687715,15.5795818 20.9608037,16.1332862 L21.855563,14.6936548 C22.1910978,14.1399505 21.9674079,13.4755052 21.4081834,13.1432826 L14.8093335,9.26735211 C14.5856437,9.15661124 14.2501089,9.04587037 13.9145742,9.15661124 C13.5790394,9.26735211 13.3553496,9.37809299 13.2435047,9.7103156 L0.157649875,32.5229352 C-0.177884865,33.0766395 0.0458049616,33.7410848 0.605029527,34.0733074 L7.09203449,37.7277562 C7.31572431,37.838497 7.42756923,37.838497 7.65125905,37.838497 C7.98679379,37.838497 8.43417344,37.6170153 8.65786327,37.2847927 L10,34.9592344 C10.335537,35.7344205 10.7829166,36.3988657 11.2302963,36.8418292 C10.4473819,37.7277562 10,38.8351649 10,39.9425736 C10,41.1607232 10.4473819,42.3788728 11.3421412,43.2647997 C12.2369005,44.1507267 13.4671945,44.5936902 14.6974886,44.5936902 C14.8093335,44.5936902 14.9211784,44.5936902 15.1448682,44.5936902 C15.1448682,44.7044311 15.1448682,44.815172 15.1448682,45.0366537 C15.1448682,46.2548033 15.5922479,47.4729529 16.4870072,48.3588798 C17.3817665,49.2448068 18.5002156,49.6877703 19.8423546,49.6877703 C19.9541995,49.6877703 20.0660444,49.6877703 20.2897342,49.6877703 C20.2897342,49.7985112 20.2897342,49.9092521 20.2897342,50.1307338 C20.2897342,51.3488834 20.7371139,52.567033 21.6318732,53.4529599 C22.5266325,54.3388869 23.7569265,54.7818504 24.9872206,54.7818504 C26.2175146,54.7818504 27.3359638,54.3388869 28.342568,53.4529599 L28.7899476,53.0099965 L31.4742255,55.0033322 C32.3689848,55.6677774 33.2637442,56 34.2703484,56 C35.7243322,56 37.0664712,55.4462956 37.8493856,54.3388869 C38.4086102,53.5637008 38.7441449,52.7885147 38.7441449,51.9025877 C38.8559898,51.9025877 38.8559898,51.9025877 38.9678347,51.9025877 C40.3099737,51.9025877 41.6521126,51.3488834 42.5468719,50.2414747 C43.1060965,49.4662886 43.4416312,48.5803616 43.4416312,47.8051755 C43.5534762,47.8051755 43.6653211,47.8051755 43.777166,47.8051755 C45.1193049,47.8051755 46.4614439,47.2514711 47.3562032,46.2548033 C47.9154278,45.5903581 48.2509625,44.815172 48.2509625,43.8185041 C49.3694116,43.7077632 50.4878608,43.1540589 51.1589303,42.157391 C52.1655345,40.8285006 52.2773794,39.1673875 51.6063099,37.838497 L54.6261226,36.0666431 L55.5208819,37.5062744 C55.6327268,37.7277562 55.9682615,37.9492379 56.1919513,37.9492379 C56.3037963,37.9492379 56.3037963,37.9492379 56.4156412,37.9492379 C56.639331,37.9492379 56.8630208,37.838497 56.9748657,37.7277562 L63.6855605,33.4088622 C64.0210953,32.9658987 64.1329402,32.3014534 63.7974054,31.85849 Z M7.2038794,35.1807161 L2.61823796,32.6336761 L14.5856437,11.5929104 L19.28313,14.3614322 L7.2038794,35.1807161 Z M12.7961251,41.7144275 C12.3487454,41.2714641 12.1250556,40.6070188 12.1250556,40.0533145 C12.1250556,39.3888692 12.3487454,38.8351649 12.7961251,38.3922014 L13.4671945,37.7277562 C14.3619538,36.8418292 16.0396275,36.8418292 16.9343868,37.7277562 C17.3817665,38.1707196 17.6054563,38.8351649 17.6054563,39.3888692 C17.6054563,40.0533145 17.3817665,40.6070188 16.9343868,41.0499823 L16.2633174,41.7144275 C15.3685581,42.6003545 13.8027293,42.6003545 12.7961251,41.7144275 Z M17.8291461,46.6977668 C17.8291461,46.6977668 17.8291461,46.6977668 17.8291461,46.6977668 C17.3817665,46.2548033 17.1580767,45.5903581 17.1580767,45.0366537 C17.1580767,44.3722085 17.3817665,43.8185041 17.8291461,43.3755406 L18.5002156,42.7110954 C18.9475953,42.2681319 19.6186648,42.0466502 20.1778893,42.0466502 C20.7371139,42.0466502 21.4081834,42.2681319 21.855563,42.7110954 C22.8621672,43.7077632 22.8621672,45.1473946 21.855563,46.1440624 L21.1844935,46.8085076 C20.4015791,47.5836937 18.8357504,47.5836937 17.8291461,46.6977668 Z M26.3293595,51.681106 C25.3227553,52.567033 23.8687715,52.567033 22.8621672,51.681106 C22.4147876,51.2381425 22.1910978,50.5736973 22.1910978,50.0199929 C22.1910978,49.3555477 22.4147876,48.8018433 22.8621672,48.3588798 L23.5332367,47.6944346 C23.9806164,47.2514711 24.6516858,47.0299894 25.2109104,47.0299894 C25.770135,47.0299894 26.4412045,47.2514711 26.8885841,47.6944346 C27.3359638,48.1373981 27.5596536,48.8018433 27.5596536,49.3555477 C27.5596536,50.0199929 27.3359638,50.5736973 26.8885841,51.0166608 L26.3293595,51.681106 Z M49.0338769,40.6070188 C48.5864973,41.1607232 47.9154278,41.4929458 47.1325134,41.3822049 C47.0206685,41.2714641 46.7969786,41.2714641 46.5732888,41.2714641 C46.349599,41.1607232 46.1259092,41.0499823 45.9022193,40.9392414 L43.6653211,39.1673875 C43.2179414,38.8351649 42.435027,38.8351649 42.0994923,39.3888692 C41.7639576,39.8318327 41.7639576,40.6070188 42.3231821,40.9392414 L44.5600804,42.7110954 C44.8956151,42.9325771 45.2311499,43.1540589 45.6785295,43.3755406 C45.6785295,43.8185041 45.5666846,44.2614676 45.3429948,44.5936902 C44.5600804,45.4796172 43.1060965,45.7010989 42.2113372,45.0366537 L42.0994923,44.9259128 C42.0994923,44.9259128 41.9876474,44.9259128 41.9876474,44.815172 L39.7507491,43.043318 C39.3033695,42.7110954 38.5204551,42.7110954 38.1849203,43.2647997 C37.8493856,43.7077632 37.8493856,44.4829493 38.4086102,44.815172 L40.6455084,46.5870259 L40.7573533,46.6977668 C41.0928881,47.2514711 41.0928881,48.1373981 40.6455084,48.6911025 C39.9744389,49.4662886 38.6323,49.7985112 37.7375407,49.2448068 C37.6256958,49.134066 37.5138509,49.134066 37.4020059,49.0233251 C37.4020059,49.0233251 37.290161,48.9125842 37.290161,48.9125842 L35.0532628,47.1407303 C34.6058831,46.8085076 33.8229687,46.8085076 33.487434,47.362212 C33.1518992,47.8051755 33.1518992,48.5803616 33.7111238,48.9125842 L35.9480221,50.6844382 C36.059867,50.6844382 36.059867,50.795179 36.1717119,50.9059199 C36.3954017,51.5703651 36.3954017,52.2348104 35.8361772,52.8992556 C35.5006424,53.4529599 34.8295729,53.6744417 34.0466585,53.6744417 C33.487434,53.6744417 33.0400543,53.5637008 32.5926747,53.1207373 L30.3557764,51.4596243 L29.7965518,51.1274016 C30.0202417,50.5736973 30.1320866,50.0199929 30.1320866,49.3555477 C30.1320866,48.1373981 29.6847069,46.9192485 28.7899476,46.0333215 C27.7833434,45.0366537 26.4412045,44.5936902 25.0990655,44.7044311 C25.2109104,43.3755406 24.7635308,42.0466502 23.7569265,41.0499823 C22.7503223,40.0533145 21.4081834,39.610351 20.0660444,39.7210919 C20.0660444,39.610351 20.0660444,39.4996101 20.0660444,39.2781284 C20.0660444,38.0599788 19.6186648,36.8418292 18.7239055,35.9559022 C17.8291461,35.0699752 16.710697,34.6270117 15.3685581,34.6270117 C14.4737988,34.6270117 13.5790394,34.8484935 12.90797,35.291457 C12.4605903,34.7377526 11.7895208,33.7410848 11.565831,32.3014534 L19.6186648,18.4588445 C21.855563,18.015881 26.5530494,17.2406949 29.6847069,17.6836584 L21.9674079,24.7710742 C20.625269,26.0999646 20.5134241,28.2040412 21.855563,29.6436725 C22.5266325,30.4188586 23.5332367,30.8618221 24.5398409,30.8618221 C25.2109104,30.8618221 25.8819799,30.6403404 26.4412045,30.3081178 L32.8163645,26.0999646 C33.7111238,25.4355194 34.8295729,25.2140376 35.9480221,25.4355194 L37.0664712,25.5462603 L47.2443583,36.177384 C47.2443583,36.177384 47.2443583,36.177384 47.2443583,36.177384 L49.0338769,38.0599788 C49.5931015,38.6136831 49.5931015,39.8318327 49.0338769,40.6070188 Z M49.9286362,35.8451613 L48.6983422,34.5162709 C48.6983422,34.5162709 48.6983422,34.5162709 48.6983422,34.5162709 C48.6983422,34.5162709 48.6983422,34.5162709 48.6983422,34.5162709 L40.4218186,25.767742 L41.8758025,25.8784829 C42.435027,25.9892238 42.9942516,25.5462603 43.1060965,24.881815 C43.2179414,24.3281107 42.7705618,23.7744063 42.0994923,23.6636654 L37.8493856,23.220702 C37.6256958,23.1099611 37.5138509,23.1099611 37.290161,23.1099611 L36.1717119,22.9992202 C34.6058831,22.7777385 32.8163645,23.1099611 31.4742255,24.1066289 L25.0990655,28.3147821 C24.5398409,28.6470047 23.8687715,28.5362638 23.4213918,28.0933003 C22.9740121,27.539596 22.9740121,26.7644099 23.4213918,26.3214464 L31.8097603,18.5695853 C31.9216052,18.4588445 32.145295,18.3481036 32.2571399,18.1266219 C32.4808298,18.1266219 32.5926747,18.015881 32.7045196,17.9051401 C35.0532628,16.7977314 39.862594,17.2406949 42.8824067,17.9051401 L53.0602938,33.9625665 L49.9286362,35.8451613 Z M56.5274861,35.1807161 L55.7445717,34.0733074 C55.7445717,33.9625665 55.7445717,33.8518256 55.6327268,33.7410848 C55.5208819,33.6303439 55.4090369,33.519603 55.4090369,33.4088622 L43.5534762,14.582914 L48.3628074,11.5929104 L61.3368173,32.0799717 L56.5274861,35.1807161 Z" id="Shape" fill="#27C400" fill-rule="nonzero"></path>
        <path d="M15.3685581,34.6270117 C16.710697,34.6270117 17.8291461,35.0699752 18.7239055,35.9559022 C19.6186648,36.8418292 20.0660444,38.0599788 20.0660444,39.2781284 L20.0660444,39.2781284 L20.0660444,39.7210919 C21.4081834,39.610351 22.7503223,40.0533145 23.7569265,41.0499823 C24.7635308,42.0466502 25.2109104,43.3755406 25.0990655,44.7044311 C26.4412045,44.5936902 27.7833434,45.0366537 28.7899476,46.0333215 C29.6847069,46.9192485 30.1320866,48.1373981 30.1320866,49.3555477 C30.1320866,50.0199929 30.0202417,50.5736973 29.7965518,51.1274016 L29.7965518,51.1274016 L28.681,53.116 L28.342568,53.4529599 C27.4078641,54.2756064 26.3767224,54.7163099 25.2491431,54.7750704 L24.9872206,54.7818504 C23.7569265,54.7818504 22.5266325,54.3388869 21.6318732,53.4529599 C20.7371139,52.567033 20.2897342,51.3488834 20.2897342,50.1307338 L20.2897342,50.1307338 L20.2897342,49.6877703 L20.2897342,49.6877703 L19.8423546,49.6877703 C18.5002156,49.6877703 17.3817665,49.2448068 16.4870072,48.3588798 C15.5922479,47.4729529 15.1448682,46.2548033 15.1448682,45.0366537 L15.1448682,45.0366537 L15.1448682,44.5936902 L15.1448682,44.5936902 L14.6974886,44.5936902 C13.4671945,44.5936902 12.2369005,44.1507267 11.3421412,43.2647997 C10.4473819,42.3788728 10,41.1607232 10,39.9425736 C10,38.8351649 10.4473819,37.7277562 11.2302963,36.8418292 C11.2152233,36.826905 11.2001503,36.8117293 11.1850815,36.7963065 C12.0657162,35.8139586 12.7620376,35.1108421 12.90797,35.291457 C13.5790394,34.8484935 14.4737988,34.6270117 15.3685581,34.6270117 Z M25.2109104,47.0299894 C24.6516858,47.0299894 23.9806164,47.2514711 23.5332367,47.6944346 L23.5332367,47.6944346 L22.8621672,48.3588798 C22.4147876,48.8018433 22.1910978,49.3555477 22.1910978,50.0199929 C22.1910978,50.5736973 22.4147876,51.2381425 22.8621672,51.681106 C23.8687715,52.567033 25.3227553,52.567033 26.3293595,51.681106 L26.3293595,51.681106 L26.8885841,51.0166608 C27.3359638,50.5736973 27.5596536,50.0199929 27.5596536,49.3555477 C27.5596536,48.8018433 27.3359638,48.1373981 26.8885841,47.6944346 C26.4412045,47.2514711 25.770135,47.0299894 25.2109104,47.0299894 Z M20.1778893,42.0466502 C19.6186648,42.0466502 18.9475953,42.2681319 18.5002156,42.7110954 L18.5002156,42.7110954 L17.8291461,43.3755406 C17.3817665,43.8185041 17.1580767,44.3722085 17.1580767,45.0366537 C17.1580767,45.5903581 17.3817665,46.2548033 17.8291461,46.6977668 L17.8291461,46.6977668 L17.9766061,46.818313 C18.9831016,47.581936 20.4388608,47.5467801 21.1844935,46.8085076 L21.1844935,46.8085076 L21.855563,46.1440624 C22.8621672,45.1473946 22.8621672,43.7077632 21.855563,42.7110954 C21.4081834,42.2681319 20.7371139,42.0466502 20.1778893,42.0466502 Z M16.9343868,37.7277562 C16.0396275,36.8418292 14.3619538,36.8418292 13.4671945,37.7277562 L13.4671945,37.7277562 L12.7961251,38.3922014 C12.3487454,38.8351649 12.1250556,39.3888692 12.1250556,40.0533145 C12.1250556,40.6070188 12.3487454,41.2714641 12.7961251,41.7144275 C13.8027293,42.6003545 15.3685581,42.6003545 16.2633174,41.7144275 L16.2633174,41.7144275 L16.9343868,41.0499823 C17.3817665,40.6070188 17.6054563,40.0533145 17.6054563,39.3888692 C17.6054563,38.8351649 17.3817665,38.1707196 16.9343868,37.7277562 Z M48.0272727,9.15661124 C48.3628074,9.04587037 48.5864973,8.9351295 48.922032,9.04587037 C49.1457218,9.04587037 49.4812566,9.26735211 49.5931015,9.48883386 L49.5931015,9.48883386 L63.7974054,31.85849 C64.1329402,32.3014534 64.0210953,32.9658987 63.6855605,33.4088622 L63.6855605,33.4088622 L56.9748657,37.7277562 C56.8630208,37.838497 56.639331,37.9492379 56.4156412,37.9492379 L56.4156412,37.9492379 L56.1919513,37.9492379 C55.9682615,37.9492379 55.6327268,37.7277562 55.5208819,37.5062744 L55.5208819,37.5062744 L54.6261226,36.0666431 L51.6063099,37.838497 C52.0835659,38.7835869 52.1648339,39.8967108 51.809882,40.9388614 L47.2443583,36.177384 L37.0664712,25.5462603 L35.9480221,25.4355194 C34.8295729,25.2140376 33.7111238,25.4355194 32.8163645,26.0999646 L32.8163645,26.0999646 L26.4412045,30.3081178 C25.8819799,30.6403404 25.2109104,30.8618221 24.5398409,30.8618221 C23.5332367,30.8618221 22.5266325,30.4188586 21.855563,29.6436725 C20.5134241,28.2040412 20.625269,26.0999646 21.9674079,24.7710742 L21.9674079,24.7710742 L29.6847069,17.6836584 C30.2929354,16.9845268 31.0235912,16.4559341 31.7557987,16.0216713 L31.8097603,16.0225453 C34.4940382,14.8043957 38.6323,15.0258774 41.3165779,15.4688409 L41.3165779,15.4688409 L40.9810432,14.9151366 C40.6455084,14.3614322 40.7573533,13.696987 41.3165779,13.3647644 L41.3165779,13.3647644 Z M42.8824067,17.9051401 C39.862594,17.2406949 35.0532628,16.7977314 32.7045196,17.9051401 C32.5926747,18.015881 32.4808298,18.1266219 32.2571399,18.1266219 C32.145295,18.3481036 31.9216052,18.4588445 31.8097603,18.5695853 L31.8097603,18.5695853 L23.4213918,26.3214464 C22.9740121,26.7644099 22.9740121,27.539596 23.4213918,28.0933003 C23.8687715,28.5362638 24.5398409,28.6470047 25.0990655,28.3147821 L25.0990655,28.3147821 L31.4742255,24.1066289 C32.8163645,23.1099611 34.6058831,22.7777385 36.1717119,22.9992202 L36.1717119,22.9992202 L37.290161,23.1099611 C37.5138509,23.1099611 37.6256958,23.1099611 37.8493856,23.220702 L37.8493856,23.220702 L42.0994923,23.6636654 C42.7705618,23.7744063 43.2179414,24.3281107 43.1060965,24.881815 C42.9942516,25.5462603 42.435027,25.9892238 41.8758025,25.8784829 L41.8758025,25.8784829 L40.4218186,25.767742 L48.6983422,34.5162709 L48.6983422,34.5162709 L49.9286362,35.8451613 L53.0602938,33.9625665 Z M48.3628074,11.5929104 L43.5534762,14.582914 L55.4090369,33.4088622 C55.4090369,33.519603 55.5208819,33.6303439 55.6327268,33.7410848 C55.7445717,33.8518256 55.7445717,33.9625665 55.7445717,34.0733074 L55.7445717,34.0733074 L56.5274861,35.1807161 L61.3368173,32.0799717 L48.3628074,11.5929104 Z" id="Shape-Copy" fill="#740AC4" fill-rule="nonzero"></path>
    </g>
</svg>