<?xml version="1.0" encoding="UTF-8"?>
<svg width="16px" height="16px" viewBox="0 0 16 16" version="1.1" xmlns="http://www.w3.org/2000/svg" xmlns:xlink="http://www.w3.org/1999/xlink">
    <title>icone/info</title>
    <g id="icone/info" stroke="none" stroke-width="1" fill="none" fill-rule="evenodd">
        <rect id="ViewBox" fill-rule="nonzero" x="0" y="0" width="16" height="16"></rect>
        <path d="M8,0 C3.58214286,0 0,3.58214286 0,8 C0,12.4178571 3.58214286,16 8,16 C12.4178571,16 16,12.4178571 16,8 C16,3.58214286 12.4178571,0 8,0 Z M8.57142857,11.8571429 C8.57142857,11.9357143 8.50714286,12 8.42857143,12 L7.57142857,12 C7.49285714,12 7.42857143,11.9357143 7.42857143,11.8571429 L7.42857143,7 C7.42857143,6.92142857 7.49285714,6.85714286 7.57142857,6.85714286 L8.42857143,6.85714286 C8.50714286,6.85714286 8.57142857,6.92142857 8.57142857,7 L8.57142857,11.8571429 Z M8,5.71428571 C7.53343088,5.70476142 7.16017584,5.32380918 7.16017584,4.85714286 C7.16017584,4.39047653 7.53343088,4.0095243 8,4 C8.46656912,4.0095243 8.83982416,4.39047653 8.83982416,4.85714286 C8.83982416,5.32380918 8.46656912,5.70476142 8,5.71428571 L8,5.71428571 Z" id="Icon-Shape" fill="#CCCCCC" fill-rule="nonzero"></path>
    </g>
</svg>