<?xml version="1.0" encoding="UTF-8"?>
<svg width="24px" height="24px" viewBox="0 0 24 24" version="1.1" xmlns="http://www.w3.org/2000/svg" xmlns:xlink="http://www.w3.org/1999/xlink">
    <title>icone/affichage</title>
    <g id="icone/affichage" stroke="none" stroke-width="1" fill="none" fill-rule="evenodd">
        <rect id="Rectangle" x="0" y="0" width="24" height="24"></rect>
        <path d="M20.6666667,3.33333333 L3.33333333,3.33333333 C2.59695367,3.33333333 2,3.930287 2,4.66666667 L2,19.3333333 C2,20.069713 2.59695367,20.6666667 3.33333333,20.6666667 L20.6666667,20.6666667 C21.4030463,20.6666667 22,20.069713 22,19.3333333 L22,4.66666667 C22,3.930287 21.4030463,3.33333333 20.6666667,3.33333333 Z M8.66666667,19.3333333 L3.33333333,19.3333333 L3.33333333,4.66666667 L8.66666667,4.66666667 L8.66666667,19.3333333 Z M15.3333333,19.3333333 L10,19.3333333 L10,4.66666667 L15.3333333,4.66666667 L15.3333333,19.3333333 Z" id="Shape" fill="#5B0AC4" fill-rule="nonzero"></path>
    </g>
</svg>