<?xml version="1.0" encoding="UTF-8"?>
<svg width="24px" height="24px" viewBox="0 0 24 24" version="1.1" xmlns="http://www.w3.org/2000/svg" xmlns:xlink="http://www.w3.org/1999/xlink">
    <title>icone/min-max</title>
    <g id="icone/min-max" stroke="none" stroke-width="1" fill="none" fill-rule="evenodd">
        <rect id="Rectangle-3" fill-rule="nonzero" x="0" y="0" width="24" height="24"></rect>
        <g id="Group" transform="translate(11.780000, 11.748659) rotate(-90.000000) translate(-11.780000, -11.748659) translate(1.280000, 6.248659)" fill="#5B0AC4" fill-rule="nonzero">
            <path d="M15.219,0.220340676 C15.3597064,0.0792781245 15.5507591,0 15.75,0 C15.9492409,0 16.1402936,0.0792781245 16.281,0.220340676 L20.781,4.72034068 C20.9220626,4.86104707 21.0013407,5.05209978 21.0013407,5.25134068 C21.0013407,5.45058157 20.9220626,5.64163428 20.781,5.78234068 L16.281,10.2823407 C15.9877368,10.5756039 15.5122632,10.5756038 15.219,10.2823407 C14.9257368,9.98907746 14.9257368,9.51360388 15.219,9.22034068 L19.1895,5.25134068 L15.219,1.28234068 C15.0779374,1.14163428 14.9986593,0.950581567 14.9986593,0.751340676 C14.9986593,0.552099784 15.0779374,0.36104707 15.219,0.220340676 L15.219,0.220340676 Z" id="Icon-Path"></path>
            <path d="M0,5.25134068 L16.5,1.50134068 C16.9142136,1.50134068 20.25,4.83712711 20.25,5.25134068 C20.25,5.66555424 16.9142136,9.00134068 16.5,9.00134068 L0,5.25134068 Z" id="Icon-Path-Copy"></path>
        </g>
    </g>
</svg>